<?xml version="1.0" encoding="UTF-8"?>
<svg version="1.1" xmlns="http://www.w3.org/2000/svg" width="1695" height="412">
<path d="M0 0 C559.35 0 1118.7 0 1695 0 C1695 135.96 1695 271.92 1695 412 C1135.65 412 576.3 412 0 412 C0 276.04 0 140.08 0 0 Z " fill="#090F1B" transform="translate(0,0)"/>
<path d="M0 0 C1.12984818 -0.00426498 2.25969635 -0.00852997 3.42378235 -0.01292419 C5.27688271 -0.01224442 5.27688271 -0.01224442 7.16741943 -0.0115509 C9.12411812 -0.01658882 9.12411812 -0.01658882 11.12034607 -0.02172852 C14.69698326 -0.03055929 18.27359653 -0.03290629 21.85024357 -0.0335443 C24.08691977 -0.03425554 26.3235899 -0.03639129 28.56026459 -0.03904152 C36.36958705 -0.04829316 44.17889245 -0.05237679 51.98822021 -0.05158997 C59.25677997 -0.0509898 66.52526536 -0.06153005 73.79380631 -0.07733363 C80.04194685 -0.09043232 86.29006315 -0.09577286 92.53821731 -0.09513456 C96.26639275 -0.09488018 99.99450216 -0.09769798 103.72266388 -0.10831261 C107.88528986 -0.11984043 112.04775059 -0.11523253 116.21038818 -0.10920715 C117.4376915 -0.11482666 118.66499481 -0.12044617 119.92948914 -0.12623596 C134.60132607 -0.0723061 147.40556211 4.27244777 158.44769287 14.13371277 C159.12445068 14.70605652 159.8012085 15.27840027 160.49847412 15.86808777 C169.68146483 24.21301913 176.58956768 36.75108509 177.72895622 49.20900917 C177.84288787 52.71933446 177.86455775 56.21847472 177.85174561 59.7306366 C177.85746077 61.07061325 177.86442943 62.41058504 177.87254333 63.75054932 C177.89036653 67.36235631 177.88932665 70.97391892 177.88360095 74.58575654 C177.88049233 77.61466554 177.88662023 80.64352872 177.8926397 83.67243117 C177.90664865 90.82631248 177.90515489 97.98007429 177.89373779 105.13395691 C177.88226873 112.48217442 177.89631995 119.83002642 177.92313427 127.17819577 C177.94538364 133.51572905 177.95190772 139.85314837 177.94605786 146.19071788 C177.942708 149.96318012 177.9449701 153.73540838 177.96230888 157.5078373 C177.97792364 161.05969256 177.97366448 164.6110123 177.95500374 168.16284752 C177.94963734 170.06513207 177.96372199 171.96744152 177.97869873 173.86967468 C177.84420615 189.79647435 172.20183449 203.38969504 161.26019287 214.94621277 C148.23579698 227.26083232 133.29867693 231.76352089 115.61199951 231.66716003 C114.30756393 231.6757756 113.00312836 231.68439117 111.65916443 231.69326782 C108.12590431 231.71550416 104.5930975 231.71288365 101.05979466 231.70394635 C98.09050885 231.69878526 95.12130447 231.70616999 92.15202707 231.71341842 C85.13795904 231.73033555 78.124109 231.72693482 71.11004639 231.71012878 C63.91620477 231.69321299 56.72297027 231.70905278 49.52919489 231.74135166 C43.312124 231.76818963 37.09524043 231.77528564 30.8781175 231.76683658 C27.18273295 231.76194877 23.48771311 231.76389432 19.79237556 231.7846241 C-3.05951761 231.89963112 -20.12477648 230.53862891 -37.80230713 214.50871277 C-47.38395821 204.38696862 -53.6263549 190.29582974 -53.70620728 176.38800049 C-53.71480774 175.2655191 -53.7234082 174.14303772 -53.73226929 172.98654175 C-53.73652924 171.76932938 -53.74078918 170.552117 -53.74517822 169.29801941 C-53.75335571 168.00450562 -53.7615332 166.71099182 -53.7699585 165.37828064 C-53.79606441 161.10016431 -53.8114796 156.8220388 -53.82574463 152.54386902 C-53.83110993 151.06389804 -53.83648745 149.58392711 -53.84187698 148.10395622 C-53.86349332 141.94020082 -53.88222367 135.77644789 -53.89349937 129.61266422 C-53.90969843 120.81918694 -53.94279141 112.02615421 -53.99990022 103.23284441 C-54.03879973 97.0287189 -54.05815582 90.82471126 -54.06341994 84.62046713 C-54.06704759 80.92601566 -54.07878795 77.23203951 -54.11152267 73.53772163 C-54.29908976 51.27551211 -53.32901276 33.54200252 -37.42730713 16.44621277 C-29.47654089 8.90178893 -20.25888706 3.51952524 -9.55230713 1.13371277 C-8.9630759 0.96172206 -8.37384468 0.78973135 -7.76675797 0.6125288 C-5.12687281 0.04172392 -2.7020231 0.00461371 0 0 Z " fill="#39B4ED" transform="translate(129.55230712890625,80.86628723144531)"/>
<path d="M0 0 C54.69230769 0 54.69230769 0 62.76171875 7.67578125 C68.47822749 14.13972696 69.52444798 18.82465279 69.37109375 27.51171875 C68.84950905 32.4146149 67.50413461 35.53768084 64 39 C60.84718595 41.39927341 57.53365443 43.23317279 54 45 C55.546875 45.61875 55.546875 45.61875 57.125 46.25 C63.81546575 49.16358992 68.32561279 52.69059407 72 59 C74.31327028 65.93981083 74.01441761 73.79942856 70.9375 80.4375 C66.35252313 88.27387321 60.94862556 91.62072268 52.31103516 94.18408203 C42.90677343 96.28509138 32.74538426 95.3957791 23.1875 95.25 C15.535625 95.1675 7.88375 95.085 0 95 C0 63.65 0 32.3 0 0 Z " fill="#ECEFF5" transform="translate(1237,88)"/>
<path d="M0 0 C6.6 0 13.2 0 20 0 C20 31.35 20 62.7 20 95 C13.73 95 7.46 95 1 95 C1 91.37 1 87.74 1 84 C0.34 84 -0.32 84 -1 84 C-1.20625 84.721875 -1.4125 85.44375 -1.625 86.1875 C-3.73892492 90.51143734 -7.0296425 93.05751233 -11.34375 95.12109375 C-18.75915251 97.57471958 -26.74750694 96.53710418 -33.75 93.31640625 C-41.37218609 88.85689807 -46.04033532 81.57900039 -48.54199219 73.18041992 C-51.09230682 61.03923657 -50.80715186 45.62442211 -44 35 C-43.61585937 34.38511719 -43.23171875 33.77023438 -42.8359375 33.13671875 C-39.25599005 28.22951187 -33.68740056 24.89580019 -28 23 C-12.2406679 21.77850158 -12.2406679 21.77850158 -6 27 C-3.525 29.97 -3.525 29.97 -1 33 C-0.67 22.11 -0.34 11.22 0 0 Z " fill="#EAEDF3" transform="translate(1140,88)"/>
<path d="M0 0 C8.58 0 17.16 0 26 0 C34.44777405 23.47434558 42.77446179 46.98747878 50.9375 70.5625 C51.34143982 71.72753052 51.74537964 72.89256104 52.16156006 74.09289551 C53.30623059 77.39590923 54.44854198 80.6997272 55.58984375 84.00390625 C55.93600235 85.00299515 56.28216095 86.00208405 56.6388092 87.03144836 C56.95128098 87.93831894 57.26375275 88.84518951 57.58569336 89.77954102 C57.86021835 90.57441422 58.13474335 91.36928741 58.41758728 92.18824768 C59 94 59 94 59 95 C51.74 95 44.48 95 37 95 C35.2675 90.111875 35.2675 90.111875 33.5 85.125 C33.13455078 84.09906738 32.76910156 83.07313477 32.39257812 82.01611328 C32.10833984 81.20899902 31.82410156 80.40188477 31.53125 79.5703125 C31.23798828 78.74289551 30.94472656 77.91547852 30.64257812 77.06298828 C30 75 30 75 30 73 C18.78 73 7.56 73 -4 73 C-4.99 76.63 -5.98 80.26 -7 84 C-8 87.66666667 -9 91.33333333 -10 95 C-17.26 95 -24.52 95 -32 95 C-30.71134045 89.20103202 -29.39813948 83.7604081 -27.50390625 78.18359375 C-27.26969467 77.48283218 -27.03548309 76.78207062 -26.79417419 76.06007385 C-26.3029725 74.59312996 -25.80963155 73.12690074 -25.31420898 71.66137695 C-24.56351664 69.44050765 -23.81927304 67.2175601 -23.07617188 64.99414062 C-22.59412333 63.55716638 -22.11171355 62.12031324 -21.62890625 60.68359375 C-21.30062584 59.70512733 -21.30062584 59.70512733 -20.9657135 58.70689392 C-19.86776992 55.46246015 -18.72490872 52.24333682 -17.50927734 49.04101562 C-15.96214686 44.95084461 -14.57999865 40.81654911 -13.22265625 36.66015625 C-12.70395246 35.08653038 -12.18506665 33.5129645 -11.66601562 31.93945312 C-10.86329546 29.50040935 -10.06198681 27.06093063 -9.26391602 24.62036133 C-8.48351215 22.23639447 -7.69723408 19.85442669 -6.91015625 17.47265625 C-6.6777272 16.7567482 -6.44529816 16.04084015 -6.20582581 15.30323792 C-4.43984595 9.97880614 -2.30709712 5.19096853 0 0 Z " fill="#EDF0F6" transform="translate(788,88)"/>
<path d="M0 0 C7.26526696 5.79290389 12.2165066 14.1171087 13.5390625 23.375 C14.58018321 35.85357533 13.05161188 47.43981525 4.7890625 57.4375 C-1.9772381 64.31913526 -9.13897756 67.43728071 -18.70532227 67.66796875 C-30.45142405 67.76433714 -38.59697805 66.11369934 -47.4140625 57.796875 C-55.86693963 47.79537915 -57.18651255 37.01245979 -56.64013672 24.46484375 C-55.86705671 15.44908778 -51.12585493 7.71445808 -44.61328125 1.65625 C-32.10421117 -8.49027205 -13.36363435 -8.8242411 0 0 Z " fill="#ECEFF5" transform="translate(609.4609375,116.625)"/>
<path d="M0 0 C7.26514344 5.7928054 12.21647363 14.11687794 13.5390625 23.375 C14.45543358 35.2728015 13.15886577 47.22635238 5.234375 56.6640625 C-1.66244109 63.62444371 -9.15694325 67.68758924 -19.05688477 67.84375 C-19.80897217 67.8334375 -20.56105957 67.823125 -21.3359375 67.8125 C-22.12605225 67.80347656 -22.91616699 67.79445313 -23.73022461 67.78515625 C-33.4630648 67.49704257 -40.29728176 64.50986676 -47.4140625 57.796875 C-55.86693963 47.79537915 -57.18651255 37.01245979 -56.64013672 24.46484375 C-55.86705671 15.44908778 -51.12585493 7.71445808 -44.61328125 1.65625 C-32.10421117 -8.49027205 -13.36363435 -8.8242411 0 0 Z " fill="#ECEFF5" transform="translate(529.4609375,116.625)"/>
<path d="M0 0 C6.27 0 12.54 0 19 0 C19.33 11.22 19.66 22.44 20 34 C22.31 31.36 24.62 28.72 27 26 C33.15729339 22.05933223 39.85382541 22.22959456 47 23 C53.57349797 24.72188827 58.37223088 29.37925392 62 35 C65.22056572 41.88953942 65.39734479 47.83847301 65.29296875 55.375 C65.28872391 56.5400708 65.28447906 57.7051416 65.28010559 58.90551758 C65.2633965 62.60391965 65.22575761 66.30176434 65.1875 70 C65.17244317 72.51691918 65.15875652 75.03384695 65.14648438 77.55078125 C65.11351826 83.70073355 65.06178879 89.85027247 65 96 C58.4 96 51.8 96 45 96 C44.99589111 94.51153564 44.99178223 93.02307129 44.98754883 91.48950195 C44.96576607 85.96343426 44.91148399 80.43807943 44.84741211 74.91235352 C44.82422486 72.52147253 44.80983472 70.1304893 44.80444336 67.73950195 C44.79515962 64.3009463 44.75417832 60.86400056 44.70703125 57.42578125 C44.7109639 56.35789871 44.71489655 55.29001617 44.71894836 54.18977356 C44.61422202 48.08419396 44.61422202 48.08419396 41.66674805 42.84448242 C38.28448832 40.50510934 36.10525443 40.07078025 32 40 C28.29827466 40.7953124 28.29827466 40.7953124 25 42 C23.515 42.495 23.515 42.495 22 43 C19.38790072 48.35925035 19.65350673 54.03461352 19.5859375 59.8671875 C19.56657135 60.90191193 19.5472052 61.93663635 19.5272522 63.00271606 C19.46768158 66.29339467 19.42116095 69.58410868 19.375 72.875 C19.33679952 75.11199405 19.29774659 77.34897372 19.2578125 79.5859375 C19.16199844 85.05717425 19.07788415 90.52847983 19 96 C12.73 96 6.46 96 0 96 C0 64.32 0 32.64 0 0 Z " fill="#EBEEF4" transform="translate(858,88)"/>
<path d="M0 0 C6.27 0 12.54 0 19 0 C19.33 11.55 19.66 23.1 20 35 C21.65 32.69 23.3 30.38 25 28 C32.32025887 22.43660326 39.01047069 22.13919632 48 23 C55.42971449 25.45191147 59.88654934 30.18505058 63.61450195 36.91430664 C65.81756694 42.23538451 65.36955274 47.83258961 65.29296875 53.49609375 C65.28872391 54.68477554 65.28447906 55.87345734 65.28010559 57.09815979 C65.26337251 60.87817457 65.2257289 64.65764755 65.1875 68.4375 C65.17244628 71.00715373 65.15875908 73.57681586 65.14648438 76.14648438 C65.11348635 82.43119693 65.06173995 88.71550674 65 95 C58.73 95 52.46 95 46 95 C45.970271 92.94906128 45.970271 92.94906128 45.93994141 90.85668945 C45.86380044 85.77805336 45.77509577 80.6997006 45.68261719 75.62133789 C45.6443626 73.42445474 45.6095036 71.2275097 45.578125 69.03051758 C45.5323984 65.87038068 45.47441582 62.7106685 45.4140625 59.55078125 C45.40251129 58.57039383 45.39096008 57.59000641 45.37905884 56.57991028 C45.29901482 50.04090066 45.29901482 50.04090066 43 44 C39.12076141 40.58257553 36.02592949 39.33768961 30.9609375 39.609375 C27.64580447 40.26976007 25.53010397 41.83133945 23 44 C21.12590555 47.00876863 20.73668782 49.34310473 20.68115234 52.86035156 C20.66128265 53.82104553 20.64141296 54.7817395 20.62094116 55.77154541 C20.60361435 57.31548981 20.60361435 57.31548981 20.5859375 58.890625 C20.56657135 59.95037537 20.5472052 61.01012573 20.5272522 62.10198975 C20.46750446 65.48457813 20.4210898 68.86720063 20.375 72.25 C20.33681584 74.54428562 20.29776385 76.83855697 20.2578125 79.1328125 C20.16180667 84.75509236 20.07775747 90.37743934 20 96 C13.4 96 6.8 96 0 96 C0 64.32 0 32.64 0 0 Z " fill="#EBEEF4" transform="translate(1558,88)"/>
<path d="M0 0 C6.36182254 3.4577579 10.5723482 8.06184415 12.79759216 15.08343506 C13.27082438 17.57183717 13.31889404 19.88909116 13.31274414 22.42285156 C13.31263084 23.98401703 13.31263084 23.98401703 13.31251526 25.57672119 C13.30735397 26.69351257 13.30219269 27.81030396 13.296875 28.9609375 C13.29546005 30.10947205 13.2940451 31.25800659 13.29258728 32.44134521 C13.28699018 36.10936081 13.27443819 39.77731535 13.26171875 43.4453125 C13.25670338 45.93229079 13.25214053 48.41927003 13.24804688 50.90625 C13.2370217 57.00262769 13.21975902 63.09895974 13.19921875 69.1953125 C6.92921875 69.1953125 0.65921875 69.1953125 -5.80078125 69.1953125 C-6.29578125 65.2353125 -6.29578125 65.2353125 -6.80078125 61.1953125 C-7.30867188 61.67742187 -7.8165625 62.15953125 -8.33984375 62.65625 C-9.02820312 63.28789062 -9.7165625 63.91953125 -10.42578125 64.5703125 C-11.09867188 65.19679688 -11.7715625 65.82328125 -12.46484375 66.46875 C-18.82259777 71.16795949 -26.23790512 70.7916344 -33.80078125 70.1953125 C-39.34792282 68.997291 -44.10634723 65.41479528 -47.80078125 61.1953125 C-50.91014734 55.98739897 -51.72746634 50.15108631 -50.80078125 44.1953125 C-48.58087359 37.22204326 -44.40333753 33.06708601 -37.90625 29.69140625 C-32.50410373 27.44092754 -26.67970892 26.89136382 -20.92578125 26.0703125 C-18.65703751 25.73786795 -16.38877486 25.40211734 -14.12109375 25.0625 C-13.12352051 24.91925293 -12.12594727 24.77600586 -11.09814453 24.62841797 C-8.84467522 24.42716257 -8.84467522 24.42716257 -7.80078125 23.1953125 C-7.66509806 19.53186639 -7.63616699 16.68915529 -8.80078125 13.1953125 C-14.88072446 11.6262949 -20.61174377 11.04109274 -26.23828125 14.0078125 C-28.94634025 16.11824555 -28.94634025 16.11824555 -30.80078125 19.1953125 C-36.92578125 19.6328125 -36.92578125 19.6328125 -39.80078125 18.1953125 C-41.3374699 17.97063419 -42.88046179 17.78734445 -44.42578125 17.6328125 C-45.24304688 17.54902344 -46.0603125 17.46523437 -46.90234375 17.37890625 C-47.84207031 17.28802734 -47.84207031 17.28802734 -48.80078125 17.1953125 C-47.45559928 11.21672598 -44.30786834 7.19247368 -39.80078125 3.1953125 C-27.97666136 -4.07831277 -12.90641931 -5.65273495 0 0 Z " fill="#EAEDF3" transform="translate(1064.80078125,113.8046875)"/>
<path d="M0 0 C7.48647386 5.98917909 11.49558723 12.98234894 13.8125 22.25 C13.8125 26.87 13.8125 31.49 13.8125 36.25 C-2.3575 36.25 -18.5275 36.25 -35.1875 36.25 C-32.90281941 45.4967482 -32.90281941 45.4967482 -27.1875 51.25 C-22.27187807 52.88854064 -17.31127712 52.87188324 -12.1875 52.25 C-8.95556643 50.62798091 -6.82580108 48.52660215 -5.1875 45.25 C-3.10381462 45.56014392 -1.02056332 45.8732052 1.0625 46.1875 C2.22265625 46.36152344 3.3828125 46.53554687 4.578125 46.71484375 C7.04356961 47.1227736 9.40674562 47.58901303 11.8125 48.25 C11.5236391 54.17164848 9.01898193 57.36563606 4.8125 61.25 C2.58743039 62.88241088 0.31006971 64.08733824 -2.1875 65.25 C-3.30125 65.8275 -4.415 66.405 -5.5625 67 C-14.56920262 70.17780346 -26.99165425 69.48241915 -35.69140625 65.6953125 C-45.40832821 60.06892576 -50.32305961 52.91772223 -53.7890625 42.4296875 C-55.97256105 30.48466604 -54.12717649 19.69161114 -48.5 9.0625 C-35.90488162 -6.25588722 -17.51315181 -9.61506374 0 0 Z " fill="#ECF0F5" transform="translate(1374.1875,115.75)"/>
<path d="M0 0 C7.48647386 5.98917909 11.49558723 12.98234894 13.8125 22.25 C13.8125 26.87 13.8125 31.49 13.8125 36.25 C-2.3575 36.25 -18.5275 36.25 -35.1875 36.25 C-32.90281941 45.4967482 -32.90281941 45.4967482 -27.1875 51.25 C-22.27187807 52.88854064 -17.31127712 52.87188324 -12.1875 52.25 C-8.95556643 50.62798091 -6.82580108 48.52660215 -5.1875 45.25 C-3.10381462 45.56014392 -1.02056332 45.8732052 1.0625 46.1875 C2.22265625 46.36152344 3.3828125 46.53554687 4.578125 46.71484375 C7.04356961 47.1227736 9.40674562 47.58901303 11.8125 48.25 C11.5236391 54.17164848 9.01898193 57.36563606 4.8125 61.25 C2.58743039 62.88241088 0.31006971 64.08733824 -2.1875 65.25 C-3.30125 65.8275 -4.415 66.405 -5.5625 67 C-14.56920262 70.17780346 -26.99165425 69.48241915 -35.69140625 65.6953125 C-45.40832821 60.06892576 -50.32305961 52.91772223 -53.7890625 42.4296875 C-55.97256105 30.48466604 -54.12717649 19.69161114 -48.5 9.0625 C-35.90488162 -6.25588722 -17.51315181 -9.61506374 0 0 Z " fill="#ECF0F5" transform="translate(990.1875,115.75)"/>
<path d="M0 0 C6.27 0 12.54 0 19 0 C19 16.83 19 33.66 19 51 C19.66 51 20.32 51 21 51 C21.24621094 50.43410156 21.49242187 49.86820313 21.74609375 49.28515625 C23.21536224 46.60751742 24.97752435 44.66956388 27.0625 42.4375 C31.27782447 37.84702529 35.24375647 33.1029902 39.15234375 28.25 C42.60999345 24.03941601 42.60999345 24.03941601 45.24658203 23.77294922 C46.15778809 23.78342285 47.06899414 23.79389648 48.0078125 23.8046875 C48.99394531 23.81113281 49.98007812 23.81757812 50.99609375 23.82421875 C52.54490234 23.84935547 52.54490234 23.84935547 54.125 23.875 C55.16527344 23.88402344 56.20554687 23.89304687 57.27734375 23.90234375 C59.85179092 23.92596253 62.42578212 23.95889851 65 24 C61.0662456 29.39385063 56.92365739 34.50272406 52.5 39.5 C48.09967591 44.5181543 43.88297323 49.56383748 40 55 C45.9657924 64.12530745 52.19375139 73.06170076 58.45117188 81.98852539 C59.12341797 82.95008545 59.79566406 83.91164551 60.48828125 84.90234375 C61.09196533 85.76335693 61.69564941 86.62437012 62.31762695 87.51147461 C63.97236081 89.95911678 65.50457814 92.45250823 67 95 C46.75764217 96.78067001 46.75764217 96.78067001 41.078125 93.11328125 C39.0323147 90.18882165 37.5577314 87.21192783 36 84 C34.08241398 81.04567593 32.03687334 78.18537478 30 75.3125 C29.03874448 73.91476558 28.08016528 72.51518459 27.125 71.11328125 C26.42375 70.08589844 25.7225 69.05851562 25 68 C21.72226496 68.75150023 21.72226496 68.75150023 20 72 C19.63303819 74.51502177 19.63303819 74.51502177 19.5859375 77.32421875 C19.54726563 78.35224609 19.50859375 79.38027344 19.46875 80.43945312 C19.4378125 81.51130859 19.406875 82.58316406 19.375 83.6875 C19.33632813 84.77095703 19.29765625 85.85441406 19.2578125 86.97070312 C19.16349884 89.64685334 19.08065874 92.32340342 19 95 C12.73 95 6.46 95 0 95 C0 63.65 0 32.3 0 0 Z " fill="#EFF2F8" transform="translate(636,88)"/>
<path d="M0 0 C5.83063512 2.6105605 10.98354247 7.43020624 13.33959961 13.40789795 C15.53893923 20.15037516 15.94081084 26.24272053 15.8359375 33.30078125 C15.83169266 34.39643402 15.82744781 35.49208679 15.82307434 36.62094116 C15.80642075 40.08479474 15.76879333 43.54804411 15.73046875 47.01171875 C15.71540471 49.37499154 15.70171933 51.73827354 15.68945312 54.1015625 C15.65656088 59.86351037 15.60487138 65.62501249 15.54296875 71.38671875 C8.94296875 71.38671875 2.34296875 71.38671875 -4.45703125 71.38671875 C-4.47161377 69.95884033 -4.48619629 68.53096191 -4.5012207 67.05981445 C-4.55923351 61.75747756 -4.63646691 56.455564 -4.71948242 51.15356445 C-4.75271759 48.85968908 -4.78075389 46.56573221 -4.8034668 44.27172852 C-4.83703799 40.97246602 -4.8893566 37.67394945 -4.9453125 34.375 C-4.95170242 33.35086502 -4.95809235 32.32673004 -4.9646759 31.27156067 C-5.0604202 24.32166697 -5.0604202 24.32166697 -8.45703125 18.38671875 C-12.45424733 15.9883891 -16.90093132 15.65560291 -21.45703125 16.38671875 C-25.51093475 18.48874279 -27.77879343 20.15632672 -29.45703125 24.38671875 C-29.78027957 26.6858354 -29.78027957 26.6858354 -29.77587891 29.15527344 C-29.7957486 30.09594666 -29.81561829 31.03661987 -29.83609009 32.00579834 C-29.8534169 33.51693207 -29.8534169 33.51693207 -29.87109375 35.05859375 C-29.8904599 36.09614807 -29.90982605 37.13370239 -29.92977905 38.20269775 C-29.98951967 41.51395467 -30.03593855 44.82524646 -30.08203125 48.13671875 C-30.12021607 50.38282759 -30.1592681 52.62892187 -30.19921875 54.875 C-30.29521686 60.37878785 -30.37926865 65.88264426 -30.45703125 71.38671875 C-36.72703125 71.38671875 -42.99703125 71.38671875 -49.45703125 71.38671875 C-49.45703125 47.95671875 -49.45703125 24.52671875 -49.45703125 0.38671875 C-43.51703125 0.38671875 -37.57703125 0.38671875 -31.45703125 0.38671875 C-31.12703125 4.01671875 -30.79703125 7.64671875 -30.45703125 11.38671875 C-29.40515625 10.12859375 -28.35328125 8.87046875 -27.26953125 7.57421875 C-24.57299955 4.48467028 -22.1906715 2.20020115 -18.45703125 0.38671875 C-13.3606481 -2.16147282 -5.40600207 -1.34935187 0 0 Z " fill="#ECEFF5" transform="translate(1450.45703125,111.61328125)"/>
<path d="M0 0 C0.83265381 0.00523682 1.66530762 0.01047363 2.52319336 0.01586914 C3.42231445 0.0190918 4.32143555 0.02231445 5.24780273 0.02563477 C6.66609375 0.03820312 6.66609375 0.03820312 8.11303711 0.05102539 C9.06243164 0.05553711 10.01182617 0.06004883 10.98999023 0.06469727 C13.3435708 0.0765243 15.69701292 0.09384445 18.05053711 0.11352539 C21.20361481 7.77595565 24.03250864 15.53232874 26.78100586 23.34790039 C27.21689529 24.58469543 27.65278473 25.82149048 28.10188293 27.09576416 C29.01692209 29.69374543 29.9301437 32.29235747 30.84228516 34.89135742 C32.00749805 38.21038986 33.17926944 41.52706665 34.35262585 44.84322739 C35.47898199 48.0307428 36.59828875 51.22072237 37.71850586 54.41040039 C38.13827194 55.59486755 38.55803802 56.77933472 38.99052429 57.99969482 C39.37795303 59.10814758 39.76538177 60.21660034 40.16455078 61.35864258 C40.67606941 62.81231232 40.67606941 62.81231232 41.19792175 64.29534912 C42.05053711 67.11352539 42.05053711 67.11352539 43.05053711 73.11352539 C37.77053711 73.11352539 32.49053711 73.11352539 27.05053711 73.11352539 C26.22553711 70.86540039 25.40053711 68.61727539 24.55053711 66.30102539 C24.28950195 65.59743896 24.0284668 64.89385254 23.75952148 64.16894531 C22.73466225 61.33716165 22.05053711 59.14788287 22.05053711 56.11352539 C8.68553711 56.60852539 8.68553711 56.60852539 -4.94946289 57.11352539 C-6.59946289 62.39352539 -8.24946289 67.67352539 -9.94946289 73.11352539 C-15.55946289 73.11352539 -21.16946289 73.11352539 -26.94946289 73.11352539 C-25.04486424 66.65932917 -23.03403281 60.26752352 -20.84008789 53.90649414 C-20.55213852 53.0662117 -20.26418915 52.22592926 -19.96751404 51.36018372 C-19.04650304 48.67322042 -18.12302333 45.98711332 -17.19946289 43.30102539 C-15.93918526 39.62824642 -14.68031566 35.95498652 -13.42211914 32.28149414 C-13.11720047 31.39154755 -12.8122818 30.50160095 -12.49812317 29.58468628 C-9.88141254 21.93712895 -7.31438579 14.27394442 -4.81567383 6.58691406 C-2.7062188 0.15759446 -2.7062188 0.15759446 0 0 Z " fill="#060E1B" transform="translate(211.949462890625,154.886474609375)"/>
<path d="M0 0 C4.33999118 4.88249007 7.5 10.20510359 7.5 16.8125 C5.25113762 17.31759208 3.00086131 17.81639179 0.75 18.3125 C-0.50296875 18.5909375 -1.7559375 18.869375 -3.046875 19.15625 C-6.5 19.8125 -6.5 19.8125 -10.5 19.8125 C-10.82871094 18.99845703 -10.82871094 18.99845703 -11.1640625 18.16796875 C-12.77892413 14.52468337 -13.98011101 12.21148457 -17.1875 9.75 C-22.70303493 8.18899955 -27.32866835 8.63242845 -32.375 11.375 C-38.12800979 17.97404064 -38.13975807 25.65321932 -37.85546875 34.01171875 C-37.30866792 39.85828146 -35.68913373 43.29905016 -31.8125 47.75 C-26.96591448 49.97680956 -22.30001411 50.32193795 -17.1875 48.875 C-13.58149717 46.10760248 -12.176536 42.9643921 -10.5 38.8125 C-4.24892565 39.24204941 1.54204521 39.82651507 7.5 41.8125 C6.48864714 50.7289171 2.49400261 55.59993268 -4.375 61.125 C-13.54831164 66.07858828 -23.17928163 67.32356466 -33.5 65.8125 C-43.44934704 62.69849793 -50.57464818 56.85304427 -55.375 47.6875 C-60.07625234 37.94251998 -60.30123085 24.0881097 -57.0625 13.8125 C-53.1676633 4.9295391 -46.5929032 -1.33765392 -37.859375 -5.34765625 C-25.27948168 -9.82559841 -10.86400665 -7.76000475 0 0 Z " fill="#ECEFF4" transform="translate(1537.5,118.1875)"/>
<path d="M0 0 C29 0 29 0 37 4 C41.50091479 8.84713901 42.35056434 11.98706842 42.28515625 18.453125 C41.87004823 22.16066516 40.4672478 24.25861356 38 27 C36.68839454 27.70845842 35.35748461 28.38399858 34 29 C34.55429688 29.45890625 35.10859375 29.9178125 35.6796875 30.390625 C36.40414063 31.00421875 37.12859375 31.6178125 37.875 32.25 C38.59429688 32.85328125 39.31359375 33.4565625 40.0546875 34.078125 C43.74982093 37.72873875 44.30972339 40.74425872 44.375 45.875 C44.26729821 51.08269811 43.75791395 54.14572928 40 58 C26.73172289 67.13117511 21.07075286 63 0 63 C0 42.21 0 21.42 0 0 Z " fill="#73849D" transform="translate(1078,265)"/>
<path d="M0 0 C29 0 29 0 37 4 C40.83001079 7.98959458 42.30467987 10.5318423 42.5625 16.0625 C42.31636807 20.68274785 41.14827841 23.50191287 38 27 C36.68839454 27.70845842 35.35748461 28.38399858 34 29 C34.55429687 29.45890625 35.10859375 29.9178125 35.6796875 30.390625 C36.40414062 31.00421875 37.12859375 31.6178125 37.875 32.25 C38.59429688 32.85328125 39.31359375 33.4565625 40.0546875 34.078125 C43.74982093 37.72873875 44.30972339 40.74425872 44.375 45.875 C44.26729821 51.08269811 43.75791395 54.14572928 40 58 C26.73172289 67.13117511 21.07075286 63 0 63 C0 42.21 0 21.42 0 0 Z " fill="#72849D" transform="translate(881,265)"/>
<path d="M0 0 C6.27 0 12.54 0 19 0 C19 26.07 19 52.14 19 79 C32.53 79 46.06 79 60 79 C60 84.28 60 89.56 60 95 C40.2 95 20.4 95 0 95 C0 63.65 0 32.3 0 0 Z " fill="#F0F4F9" transform="translate(403,88)"/>
<path d="M0 0 C2.31 0 4.62 0 7 0 C7 20.79 7 41.58 7 63 C4.69 63 2.38 63 0 63 C0 61.02 0 59.04 0 57 C-0.66 57 -1.32 57 -2 57 C-2.20625 57.5775 -2.4125 58.155 -2.625 58.75 C-4.60171756 61.98462874 -6.64214101 63.25888793 -10 65 C-15.82506131 65.65766821 -20.88128888 64.98856425 -26 62 C-31.79846165 57.05232843 -34.59823818 51.19617898 -35.31640625 43.6953125 C-35.61960757 34.59927288 -34.49339969 28.12042015 -28.5625 21.125 C-22.70825396 16.27025938 -18.66140795 15.41644355 -11.11328125 15.5703125 C-6.57942652 16.19606409 -4.94165116 17.56807365 -2 21 C-1.505 21.99 -1.505 21.99 -1 23 C-0.67 15.41 -0.34 7.82 0 0 Z " fill="#71839C" transform="translate(835,265)"/>
<path d="M0 0 C1.21171875 -0.02578125 2.4234375 -0.0515625 3.671875 -0.078125 C9.50085632 0.4564104 13.25341211 2.70815097 17 7.125 C17.57234375 7.78242188 18.1446875 8.43984375 18.734375 9.1171875 C23.53723968 15.8758579 23.19258862 24.29415096 22.25 32.25 C20.36231606 39.42503167 16.67513133 43.37292659 10.43359375 47.19140625 C5.60275355 49.53336992 0.5364252 50.11325761 -4.75 49.25 C-10.93682263 46.63214972 -15.69069025 43.36861949 -18.75 37.25 C-21.77492985 29.44479779 -22.32038657 20.21942471 -19.25 12.3125 C-15.10133825 4.32856462 -8.77793255 0.11111307 0 0 Z " fill="#71829B" transform="translate(520.75,280.75)"/>
<path d="M0 0 C1.21171875 -0.02578125 2.4234375 -0.0515625 3.671875 -0.078125 C9.34698372 0.44229982 13.22554865 2.66769873 17 6.875 C20.52667239 11.15683182 21.76702255 14.77338076 22.25 20.25 C22.3428125 21.20261719 22.435625 22.15523438 22.53125 23.13671875 C22.90808562 30.4944342 21.813186 36.3304753 17.25 42.25 C11.32949446 47.42254132 5.59503904 49.75078971 -2.23828125 49.66015625 C-8.38686177 48.65611122 -13.34179722 44.93984333 -17.25 40.25 C-21.3248898 32.1002204 -22.20019403 23.50969828 -20.1328125 14.5859375 C-16.59935004 5.48648993 -9.58630022 0.12134557 0 0 Z " fill="#71829B" transform="translate(468.75,280.75)"/>
<path d="M0 0 C4.95 0 9.9 0 15 0 C15 20.13 15 40.26 15 61 C25.56 61 36.12 61 47 61 C47 65.29 47 69.58 47 74 C31.49 74 15.98 74 0 74 C0 49.58 0 25.16 0 0 Z " fill="#060C18" transform="translate(132,154)"/>
<path d="M0 0 C2.31 0 4.62 0 7 0 C7.33 2.31 7.66 4.62 8 7 C8.78375 6.030625 9.5675 5.06125 10.375 4.0625 C12.58288989 1.33168882 13.81690353 0.13336031 17.42578125 -0.2734375 C25.2722857 -0.54949855 25.2722857 -0.54949855 29.0625 2.3125 C30.41095153 4.18293277 31.72095706 6.08143558 33 8 C33.7425 7.05125 34.485 6.1025 35.25 5.125 C37.24909701 2.57059826 38.94866612 1.16005667 42 0 C46.81914775 -0.55301696 51.41246691 -0.64176869 55.9375 1.1875 C59.26515156 4.11179986 61.59081343 6.77244028 63 11 C63.08518867 13.80426452 63.1158852 16.5829635 63.09765625 19.38671875 C63.0962413 20.20372757 63.09482635 21.02073639 63.09336853 21.86250305 C63.08777294 24.47087268 63.07522129 27.07915634 63.0625 29.6875 C63.05748443 31.45637897 63.05292162 33.22525928 63.04882812 34.99414062 C63.03780496 39.32946019 63.02054338 43.66471552 63 48 C60.36 48 57.72 48 55 48 C54.9906543 46.93040039 54.98130859 45.86080078 54.97167969 44.75878906 C54.93176488 40.7850603 54.86600279 36.81210456 54.79248047 32.83886719 C54.76427933 31.12021831 54.74306046 29.40143995 54.72900391 27.68261719 C54.70756167 25.20961253 54.66090844 22.73816325 54.609375 20.265625 C54.60814636 19.49881409 54.60691772 18.73200317 54.60565186 17.94195557 C54.50874797 14.40144995 54.28566886 12.37587424 52.11425781 9.51879883 C49.56588244 7.68814719 48.11890449 7.43274557 45 7.4375 C44.154375 7.41558594 43.30875 7.39367187 42.4375 7.37109375 C38.86424741 8.29303873 37.96142246 9.91108974 36 13 C35.58996924 15.83959136 35.39533777 18.30692253 35.390625 21.14453125 C35.37408875 21.91431808 35.35755249 22.68410492 35.34051514 23.47721863 C35.29214714 25.92239447 35.27069035 28.36694896 35.25 30.8125 C35.22183075 32.47594253 35.19190198 34.13935626 35.16015625 35.80273438 C35.08639189 39.86843839 35.03674945 43.93379976 35 48 C32.36 48 29.72 48 27 48 C26.98541748 46.89487061 26.97083496 45.78974121 26.95581055 44.65112305 C26.89785734 40.55264861 26.82062481 36.45472533 26.73754883 32.35668945 C26.70428536 30.58269188 26.67625782 28.8085881 26.65356445 27.03442383 C26.62004398 24.48472824 26.56773135 21.93600708 26.51171875 19.38671875 C26.50532883 18.59287277 26.4989389 17.79902679 26.49235535 16.98112488 C26.41482519 12.73599661 26.41482519 12.73599661 24.59838867 9.00512695 C22.51721726 7.69640804 21.0777866 7.53348514 18.625 7.5 C17.49964844 7.45359375 17.49964844 7.45359375 16.3515625 7.40625 C12.73586218 8.3191843 11.32115753 10.12236983 9 13 C8.4931354 15.90588609 8.27754608 18.24335126 8.29296875 21.14453125 C8.27784744 21.91431808 8.26272614 22.68410492 8.24714661 23.47721863 C8.20434737 25.92261218 8.1954399 28.3667696 8.1875 30.8125 C8.16434939 32.47594414 8.13898287 34.13935902 8.11132812 35.80273438 C8.04855353 39.86859846 8.01615751 43.93369425 8 48 C5.36 48 2.72 48 0 48 C0 32.16 0 16.32 0 0 Z " fill="#708199" transform="translate(1337,281)"/>
<path d="M0 0 C5.52983083 2.59243487 8.28839041 6.11068601 11.25390625 11.40625 C12.50390625 15.28125 12.50390625 15.28125 12.50390625 26.28125 C1.28390625 26.28125 -9.93609375 26.28125 -21.49609375 26.28125 C-19.18560336 34.76068107 -19.18560336 34.76068107 -13.49609375 39.28125 C-9.75040486 41.15409445 -5.69242671 40.60752263 -1.74609375 39.53125 C0.78386607 38.12571677 1.9672742 36.70751114 3.50390625 34.28125 C6.14390625 34.61125 8.78390625 34.94125 11.50390625 35.28125 C10.91825997 39.23436239 9.31181588 41.47334037 6.50390625 44.28125 C0.51904809 48.05537484 -5.4966174 49.39890832 -12.49609375 48.28125 C-19.41886018 46.0180379 -24.38420394 41.78685278 -27.80859375 35.34375 C-30.86075782 27.88152028 -30.87925355 18.87343073 -27.99609375 11.34375 C-22.28066534 0.34463417 -11.73963856 -3.380428 0 0 Z " fill="#70819A" transform="translate(729.49609375,281.71875)"/>
<path d="M0 0 C4.76824222 2.88710025 7.63201251 6.56996017 9.24609375 11.90234375 C10.26786216 16.58838506 10.5 20.57046103 10.5 25.4375 C-0.72 25.4375 -11.94 25.4375 -23.5 25.4375 C-21.33161027 33.4185542 -21.33161027 33.4185542 -16.5 38.4375 C-13.30238831 40.03630585 -9.97853047 39.80604319 -6.5 39.4375 C-2.4773783 37.87314712 -0.90850891 37.05026337 1.5 33.4375 C3.81 33.7675 6.12 34.0975 8.5 34.4375 C8.20802098 37.84392186 7.55504603 39.36950196 5.375 42.0625 C0.20843059 46.3305356 -4.6170107 47.98149873 -11.234375 47.72265625 C-17.79618708 46.89677301 -22.91239798 44.23362938 -27.5 39.4375 C-32.76186136 32.06762586 -32.47161812 23.06928601 -31.5 14.4375 C-29.70578039 7.71780251 -26.17253404 2.97065022 -20.16015625 -0.5625 C-13.69641262 -2.99233608 -6.33943882 -2.74429393 0 0 Z " fill="#70819A" transform="translate(1163.5,282.5625)"/>
<path d="M0 0 C3.30180503 2.45518836 5.59744189 5.13238379 7.4375 8.8125 C7.52441001 11.65679357 7.55303802 14.47629176 7.53515625 17.3203125 C7.5337413 18.16093231 7.53232635 19.00155212 7.53086853 19.86764526 C7.52526237 22.55763275 7.51270886 25.24753759 7.5 27.9375 C7.49498579 29.75911338 7.49042275 31.58072807 7.48632812 33.40234375 C7.47529094 37.87242777 7.4580222 42.34244986 7.4375 46.8125 C5.1275 46.8125 2.8175 46.8125 0.4375 46.8125 C0.1075 44.8325 -0.2225 42.8525 -0.5625 40.8125 C-1.03300781 41.23402344 -1.50351562 41.65554688 -1.98828125 42.08984375 C-2.61089844 42.63769531 -3.23351562 43.18554688 -3.875 43.75 C-4.48988281 44.29527344 -5.10476563 44.84054687 -5.73828125 45.40234375 C-9.24253327 48.1111981 -12.88165028 48.21188303 -17.14453125 48.15625 C-21.36285513 47.55655291 -24.41054836 45.60930216 -27.5625 42.8125 C-30.94062119 38.16758337 -31.44014569 33.38813145 -30.5625 27.8125 C-28.23961938 23.06115327 -24.47709312 21.42778453 -19.7109375 19.66015625 C-13.45032493 17.97460671 -7.00325374 17.41981673 -0.5625 16.8125 C-0.79110058 15.35065942 -1.04620392 13.89294581 -1.3125 12.4375 C-1.45171875 11.62539063 -1.5909375 10.81328125 -1.734375 9.9765625 C-2.37737204 7.68458174 -2.37737204 7.68458174 -4.3984375 6.546875 C-7.79816258 5.39317768 -11.05100175 5.24634673 -14.5625 5.8125 C-18.81916699 8.05412425 -18.81916699 8.05412425 -21.5625 11.8125 C-27.3125 11.0625 -27.3125 11.0625 -29.5625 8.8125 C-28.5370443 7.50792619 -27.49124688 6.21933062 -26.4375 4.9375 C-25.85742188 4.21820313 -25.27734375 3.49890625 -24.6796875 2.7578125 C-18.43390476 -2.98093253 -7.61421272 -2.53807091 0 0 Z " fill="#71829B" transform="translate(781.5625,282.1875)"/>
<path d="M0 0 C0.70455322 -0.00233643 1.40910645 -0.00467285 2.13500977 -0.00708008 C7.868862 0.19251395 10.94587669 1.71853447 14.83984375 5.80078125 C17.7601833 9.94606566 17.25330897 14.38593351 17.22265625 19.23046875 C17.2212413 20.06967361 17.21982635 20.90887848 17.21836853 21.77351379 C17.21277215 24.45321216 17.20022035 27.1328269 17.1875 29.8125 C17.18248453 31.62955608 17.17792171 33.44661348 17.17382812 35.26367188 C17.16280391 39.71748013 17.14554178 44.17122589 17.125 48.625 C14.815 48.625 12.505 48.625 10.125 48.625 C9.795 46.645 9.465 44.665 9.125 42.625 C8.3825 43.40875 7.64 44.1925 6.875 45 C3.35702492 48.35806712 0.76130641 49.91211679 -4.125 50 C-9.07298068 49.86142393 -12.92666904 48.64640902 -16.875 45.625 C-19.8668532 42.29603658 -21.10254856 38.95097057 -21.3125 34.5 C-20.85367205 30.43609528 -20.5730136 28.6602653 -17.875 25.625 C-10.54667543 20.64173929 0.29328296 18.625 9.125 18.625 C9.06460196 12.97007697 9.06460196 12.97007697 6 8.625 C1.40723393 7.02751615 -2.18976241 6.82068206 -6.625 8.9375 C-8.87942708 10.48925545 -8.87942708 10.48925545 -10.3125 12.375 C-11.875 13.625 -11.875 13.625 -15.0625 13.3125 C-15.990625 13.085625 -16.91875 12.85875 -17.875 12.625 C-18.205 11.635 -18.535 10.645 -18.875 9.625 C-14.04189183 2.59502448 -8.6106964 0.0214019 0 0 Z " fill="#72839C" transform="translate(1430.875,280.375)"/>
<path d="M0 0 C0.70455322 -0.00233643 1.40910645 -0.00467285 2.13500977 -0.00708008 C7.868862 0.19251395 10.94587669 1.71853447 14.83984375 5.80078125 C17.7601833 9.94606566 17.25330897 14.38593351 17.22265625 19.23046875 C17.2212413 20.06967361 17.21982635 20.90887848 17.21836853 21.77351379 C17.21277215 24.45321216 17.20022035 27.1328269 17.1875 29.8125 C17.18248453 31.62955608 17.17792171 33.44661348 17.17382812 35.26367188 C17.16280391 39.71748013 17.14554178 44.17122589 17.125 48.625 C14.815 48.625 12.505 48.625 10.125 48.625 C9.795 46.645 9.465 44.665 9.125 42.625 C8.3825 43.40875 7.64 44.1925 6.875 45 C3.35702492 48.35806712 0.76130641 49.91211679 -4.125 50 C-9.07298068 49.86142393 -12.92666904 48.64640902 -16.875 45.625 C-19.8668532 42.29603658 -21.10254856 38.95097057 -21.3125 34.5 C-20.85367205 30.43609528 -20.5730136 28.6602653 -17.875 25.625 C-10.54667543 20.64173929 0.29328296 18.625 9.125 18.625 C9.06460196 12.97007697 9.06460196 12.97007697 6 8.625 C1.40723393 7.02751615 -2.18976241 6.82068206 -6.625 8.9375 C-8.87942708 10.48925545 -8.87942708 10.48925545 -10.3125 12.375 C-11.875 13.625 -11.875 13.625 -15.0625 13.3125 C-15.990625 13.085625 -16.91875 12.85875 -17.875 12.625 C-18.205 11.635 -18.535 10.645 -18.875 9.625 C-14.04189183 2.59502448 -8.6106964 0.0214019 0 0 Z " fill="#72839C" transform="translate(975.875,280.375)"/>
<path d="M0 0 C0.70455322 -0.00233643 1.40910645 -0.00467285 2.13500977 -0.00708008 C7.868862 0.19251395 10.94587669 1.71853447 14.83984375 5.80078125 C17.7601833 9.94606566 17.25330897 14.38593351 17.22265625 19.23046875 C17.2212413 20.06967361 17.21982635 20.90887848 17.21836853 21.77351379 C17.21277215 24.45321216 17.20022035 27.1328269 17.1875 29.8125 C17.18248453 31.62955608 17.17792171 33.44661348 17.17382812 35.26367188 C17.16280391 39.71748013 17.14554178 44.17122589 17.125 48.625 C14.815 48.625 12.505 48.625 10.125 48.625 C9.795 46.645 9.465 44.665 9.125 42.625 C8.3825 43.40875 7.64 44.1925 6.875 45 C3.35702492 48.35806712 0.76130641 49.91211679 -4.125 50 C-9.07298068 49.86142393 -12.92666904 48.64640902 -16.875 45.625 C-19.8668532 42.29603658 -21.10254856 38.95097057 -21.3125 34.5 C-20.85367205 30.43609528 -20.5730136 28.6602653 -17.875 25.625 C-10.54667543 20.64173929 0.29328296 18.625 9.125 18.625 C9.06460196 12.97007697 9.06460196 12.97007697 6 8.625 C1.40723393 7.02751615 -2.18976241 6.82068206 -6.625 8.9375 C-8.87942708 10.48925545 -8.87942708 10.48925545 -10.3125 12.375 C-11.875 13.625 -11.875 13.625 -15.0625 13.3125 C-15.990625 13.085625 -16.91875 12.85875 -17.875 12.625 C-18.205 11.635 -18.535 10.645 -18.875 9.625 C-14.04189183 2.59502448 -8.6106964 0.0214019 0 0 Z " fill="#72839C" transform="translate(619.875,280.375)"/>
<path d="M0 0 C4.86767642 2.88454899 7.04400736 5.9568737 8.52734375 11.27734375 C10.08176803 20.23134144 10.20884912 29.2465 5 37 C1.79744402 40.55839554 -1.13832594 41.71504823 -5.94140625 42.10546875 C-10.04251326 41.89535511 -13.46310693 40.31841318 -16.59375 37.6328125 C-21.41142403 32.03895766 -21.47789706 24.16999528 -21.28125 17.15625 C-20.74335628 11.11988718 -19.68969131 6.10639638 -15 2 C-9.84458043 -1.43694638 -5.86981945 -1.42481088 0 0 Z " fill="#0C111D" transform="translate(594,127)"/>
<path d="M0 0 C4.86767642 2.88454899 7.04400736 5.9568737 8.52734375 11.27734375 C10.08176803 20.23134144 10.20884912 29.2465 5 37 C1.79744402 40.55839554 -1.13832594 41.71504823 -5.94140625 42.10546875 C-10.04251326 41.89535511 -13.46310693 40.31841318 -16.59375 37.6328125 C-21.41142403 32.03895766 -21.47789706 24.16999528 -21.28125 17.15625 C-20.74335628 11.11988718 -19.68969131 6.10639638 -15 2 C-9.84458043 -1.43694638 -5.86981945 -1.42481088 0 0 Z " fill="#0C111D" transform="translate(514,127)"/>
<path d="M0 0 C6.62880079 7.42553166 5.69493602 15.9825705 5.1875 25.4453125 C4.32745701 30.39420392 2.282005 34.53835132 -1.875 37.59375 C-6.0755499 39.43995943 -10.36955218 39.2519191 -14.8125 38.4453125 C-18.77135358 36.7053325 -20.57842763 33.85884035 -22.6875 30.1328125 C-24.02428817 25.96330655 -24.12474532 21.72832495 -24.1875 17.3828125 C-24.20151855 16.71016357 -24.21553711 16.03751465 -24.22998047 15.34448242 C-24.17644462 9.73076861 -22.99345259 5.10297604 -19.3828125 0.703125 C-13.32880227 -4.04191004 -6.25668034 -5.3667215 0 0 Z " fill="#0A101B" transform="translate(1134.8125,129.5546875)"/>
<path d="M0 0 C2.64 0 5.28 0 8 0 C8 12.21 8 24.42 8 37 C8.66 37 9.32 37 10 37 C10.25579834 36.42475586 10.51159668 35.84951172 10.77514648 35.25683594 C13.09603068 30.9805247 16.69794913 27.72104221 20.0625 24.25 C20.78888672 23.45722656 21.51527344 22.66445313 22.26367188 21.84765625 C27.70250768 16.25974537 27.70250768 16.25974537 31.56591797 15.48632812 C34.05859375 15.484375 34.05859375 15.484375 38 16 C33.77833264 20.97940253 29.44933482 25.84399376 25.05078125 30.66796875 C23.2510939 32.71447037 21.59740202 34.79406387 20 37 C21.2873555 38.60919438 22.57474724 40.21835978 23.86230469 41.82739258 C24.9573406 43.19651395 26.05173813 44.56614614 27.14550781 45.9362793 C29.60866563 49.02032476 32.07466474 52.10087724 34.578125 55.15234375 C35.65320313 56.46912109 35.65320313 56.46912109 36.75 57.8125 C37.38421875 58.58207031 38.0184375 59.35164063 38.671875 60.14453125 C40 62 40 62 40 64 C36.39657916 64.89702178 33.58680755 65.04085832 30 64 C26.47636083 60.56368134 23.80817733 56.75096979 21.10449219 52.65478516 C19.61853018 50.42846985 18.00435741 48.31025437 16.375 46.1875 C15.59125 45.135625 14.8075 44.08375 14 43 C12.02 43.66 10.04 44.32 8 45 C8 51.27 8 57.54 8 64 C5.36 64 2.72 64 0 64 C0 42.88 0 21.76 0 0 Z " fill="#708199" transform="translate(554,265)"/>
<path d="M0 0 C2.64 0 5.28 0 8 0 C8.33 11.88 8.66 23.76 9 36 C17.06425096 27.97474728 17.06425096 27.97474728 24.625 19.59375 C27.70460048 16.02421308 27.70460048 16.02421308 30.3828125 15.8046875 C31.28773437 15.82789063 32.19265625 15.85109375 33.125 15.875 C34.03507812 15.89304687 34.94515625 15.91109375 35.8828125 15.9296875 C36.58148437 15.95289063 37.28015625 15.97609375 38 16 C35.11889983 19.52134466 32.18825928 22.8565276 28.89453125 25.99609375 C28.34764648 26.52170898 27.80076172 27.04732422 27.23730469 27.58886719 C26.12712602 28.64855376 25.00669253 29.69760703 23.87597656 30.73535156 C22.11303234 32.37070048 22.11303234 32.37070048 20 35 C20.30566597 38.26411971 21.6834445 40.15438504 23.765625 42.609375 C24.32636719 43.28226562 24.88710937 43.95515625 25.46484375 44.6484375 C26.05394531 45.34195313 26.64304687 46.03546875 27.25 46.75 C31.63933087 51.93828772 35.55733246 57.13137062 39 63 C35.27961832 63.81703756 32.71388043 64.14083295 29 63 C24.49531501 59.142042 21.30489866 53.86991349 18 49 C16.34298211 46.65965252 14.67071853 44.33060735 13 42 C10.85148979 42.84160442 10.85148979 42.84160442 9 45 C8.32890937 48.21242115 8.3026866 51.41374646 8.25 54.6875 C8.22035156 55.58017578 8.19070313 56.47285156 8.16015625 57.39257812 C8.08948573 59.59514277 8.03678061 61.79665131 8 64 C5.36 64 2.72 64 0 64 C0 42.88 0 21.76 0 0 Z " fill="#71829B" transform="translate(1496,265)"/>
<path d="M0 0 C2.64 0 5.28 0 8 0 C8.33 7.26 8.66 14.52 9 22 C10.65 20.35 12.3 18.7 14 17 C16.67655801 15.66172099 18.82434052 15.79421444 21.8125 15.75 C22.85019531 15.72421875 23.88789062 15.6984375 24.95703125 15.671875 C30.20707214 16.23798981 33.59590963 19.10961101 37 23 C38.27385127 26.8215538 38.12353188 30.4068447 38.09765625 34.38671875 C38.0962413 35.20372757 38.09482635 36.02073639 38.09336853 36.86250305 C38.08777294 39.47087268 38.07522129 42.07915634 38.0625 44.6875 C38.05748443 46.45637897 38.05292162 48.22525928 38.04882812 49.99414062 C38.03780496 54.32946019 38.02054338 58.66471552 38 63 C35.69 63 33.38 63 31 63 C30.98541748 62.02651611 30.97083496 61.05303223 30.95581055 60.05004883 C30.89766704 56.42484524 30.82043623 52.8002524 30.73754883 49.17553711 C30.70437468 47.60923199 30.67631942 46.04280949 30.65356445 44.47631836 C30.61987884 42.21938237 30.56755951 39.96351474 30.51171875 37.70703125 C30.50532883 37.01100296 30.4989389 36.31497467 30.49235535 35.59785461 C30.3620302 31.25037868 29.61805549 28.48601321 27 25 C23.57080428 22.42810321 20.16060514 22.497858 16 23 C12.52434481 25.01712132 10.29546488 27.11360536 9 31 C8.84730819 33.43780377 8.74317303 35.85283901 8.68359375 38.29296875 C8.66281265 38.99899734 8.64203156 39.70502594 8.62062073 40.43244934 C8.55532509 42.68403551 8.49633353 44.93573662 8.4375 47.1875 C8.39429575 48.7155066 8.35068084 50.24350164 8.30664062 51.77148438 C8.19966426 55.51420562 8.09834078 59.2570423 8 63 C5.36 63 2.72 63 0 63 C0 42.21 0 21.42 0 0 Z " fill="#71839B" transform="translate(1285,265)"/>
<path d="M0 0 C2.31 0 4.62 0 7 0 C7.33 7.26 7.66 14.52 8 22 C10.97 19.525 10.97 19.525 14 17 C18.38889705 14.80555148 24.50764124 15.28594831 29.140625 16.61328125 C34.16878754 19.09457016 36.16000048 22.96199195 38 28 C38.47505625 30.83724869 38.47243917 33.5672193 38.390625 36.4375 C38.38496521 37.20304199 38.37930542 37.96858398 38.37347412 38.75732422 C38.35130835 41.17222021 38.30115539 43.58556223 38.25 46 C38.22990915 47.64971796 38.21166294 49.29945948 38.1953125 50.94921875 C38.15150943 54.96673305 38.08262602 58.98310426 38 63 C35.36 63 32.72 63 30 63 C29.9906543 61.99622314 29.98130859 60.99244629 29.97167969 59.95825195 C29.93169769 56.2211529 29.86591744 52.48487002 29.79248047 48.74829102 C29.76431814 47.13348911 29.74308 45.51855057 29.72900391 43.90356445 C29.70750742 41.57692763 29.66082789 39.25192523 29.609375 36.92578125 C29.60814636 36.20787918 29.60691772 35.48997711 29.60565186 34.75032043 C29.46555094 29.91658832 28.45067867 27.38717911 25 24 C22.00541811 22.81850133 19.19539373 22.7231028 16 23 C12.19438235 24.7298262 10.49075691 25.82940851 8.86572266 29.70556641 C7.92568304 33.28280683 7.68069723 36.45280794 7.5859375 40.1484375 C7.56657135 40.80582916 7.5472052 41.46322083 7.5272522 42.14053345 C7.46797539 44.21856135 7.42128206 46.29664624 7.375 48.375 C7.33677222 49.7929915 7.29771777 51.21096097 7.2578125 52.62890625 C7.16231829 56.08573461 7.07809811 59.54272983 7 63 C4.69 63 2.38 63 0 63 C0 42.21 0 21.42 0 0 Z " fill="#73859E" transform="translate(651,265)"/>
<path d="M0 0 C2.31 0 4.62 0 7 0 C7.33 1.98 7.66 3.96 8 6 C8.94875 5.195625 9.8975 4.39125 10.875 3.5625 C15.27498234 -0.16791981 18.44275223 -0.35201862 24.171875 -0.26953125 C28.59911301 0.15240165 30.52496251 1.1632347 34 4 C37.68927386 9.37274399 38.56758039 14.26065063 38.390625 20.65625 C38.38496521 21.44398804 38.37930542 22.23172607 38.37347412 23.04333496 C38.35129902 25.52954034 38.30114337 28.01423928 38.25 30.5 C38.22991039 32.19789567 38.21166396 33.89581421 38.1953125 35.59375 C38.1514969 39.72973639 38.08260605 43.8646139 38 48 C35.36 48 32.72 48 30 48 C29.9906543 46.96593018 29.98130859 45.93186035 29.97167969 44.86645508 C29.93170579 41.01755224 29.86592751 37.16944254 29.79248047 33.32104492 C29.76431351 31.65773737 29.74307767 29.99429704 29.72900391 28.33081055 C29.70751408 25.93469475 29.66083712 23.54016816 29.609375 21.14453125 C29.60814636 20.4047554 29.60691772 19.66497955 29.60565186 18.90278625 C29.4678765 14.00940391 28.51122704 11.42371218 25 8 C22.00541811 6.81850133 19.19539373 6.7231028 16 7 C12.19438235 8.7298262 10.49075691 9.82940851 8.86572266 13.70556641 C7.92568304 17.28280683 7.68069723 20.45280794 7.5859375 24.1484375 C7.56657135 24.80582916 7.5472052 25.46322083 7.5272522 26.14053345 C7.46797539 28.21856135 7.42128206 30.29664624 7.375 32.375 C7.33677222 33.7929915 7.29771777 35.21096097 7.2578125 36.62890625 C7.16231829 40.08573461 7.07809811 43.54272983 7 47 C4.69 47 2.38 47 0 47 C0 31.49 0 15.98 0 0 Z " fill="#72839C" transform="translate(1185,281)"/>
<path d="M0 0 C2.78028659 2.01570778 4.62857285 3.93338131 6.5 6.8125 C6.5 7.8025 6.5 8.7925 6.5 9.8125 C3.3125 10.625 3.3125 10.625 -0.5 10.8125 C-1.28375 10.008125 -2.0675 9.20375 -2.875 8.375 C-5.75147739 5.56701017 -6.2591684 5.40556684 -10.0625 5.3125 C-13.696242 5.50629957 -15.90221712 6.10177004 -18.5 8.8125 C-18.17 11.1225 -17.84 13.4325 -17.5 15.8125 C-13.84323581 17.21894777 -10.22483018 18.59364805 -6.47265625 19.7265625 C4.63384555 23.10381768 4.63384555 23.10381768 7.5 27.8125 C8.39678034 32.72422353 8.01738505 36.59776988 6.0625 41.1875 C1.43502865 45.9278365 -3.83935771 47.99054132 -10.4375 48.375 C-16.14803686 48.12516401 -20.83060496 46.03974666 -25.5 42.8125 C-27.94885536 39.78744338 -28.5 38.67975676 -28.5 34.8125 C-25.25 34 -25.25 34 -21.5 33.8125 C-19.1875 36.1875 -19.1875 36.1875 -17.5 38.8125 C-14.30885219 40.4080739 -10.97259755 40.19834417 -7.5 39.8125 C-4.09758176 38.4476132 -4.09758176 38.4476132 -1.5 36.8125 C-1.08253392 33.93885209 -1.08253392 33.93885209 -1.5 30.8125 C-4.96224471 28.21896397 -8.24347643 27.24403191 -12.4375 26.375 C-18.52980559 24.93050986 -22.28921009 23.46544789 -26.375 18.5625 C-27.88360224 14.87480564 -28.40114819 11.68084346 -27.5 7.8125 C-25.33276901 3.99936505 -22.70941428 1.47479829 -18.875 -0.625 C-12.48774715 -1.68954214 -6.18535901 -2.09860395 0 0 Z " fill="#71839C" transform="translate(1033.5,282.1875)"/>
<path d="M0 0 C3.03765199 2.50159575 4.750531 5.25159299 6 9 C6.50556429 16.19456875 6.86285763 22.7395066 3 29 C-0.291152 32.57325074 -3.28367604 33.73259081 -8.01171875 34.09765625 C-12.55361253 33.87457699 -15.28248313 31.75630156 -18.3125 28.5625 C-21.82937486 23.22206039 -21.47225943 17.20806492 -21 11 C-20.10281201 6.74012315 -18.68950034 3.68950034 -15.5625 0.5625 C-10.26134949 -2.66990885 -5.68311912 -2.24893484 0 0 Z " fill="#09101D" transform="translate(529,289)"/>
<path d="M0 0 C3.03765199 2.50159575 4.750531 5.25159299 6 9 C6.50556429 16.19456875 6.86285763 22.7395066 3 29 C-0.291152 32.57325074 -3.28367604 33.73259081 -8.01171875 34.09765625 C-12.55361253 33.87457699 -15.28248313 31.75630156 -18.3125 28.5625 C-21.82937486 23.22206039 -21.47225943 17.20806492 -21 11 C-20.10281201 6.74012315 -18.68950034 3.68950034 -15.5625 0.5625 C-10.26134949 -2.66990885 -5.68311912 -2.24893484 0 0 Z " fill="#09101D" transform="translate(477,289)"/>
<path d="M0 0 C3.76881903 2.3843549 6.70008973 5.12995232 9.0625 8.9375 C9.0625 9.9275 9.0625 10.9175 9.0625 11.9375 C6.7525 12.5975 4.4425 13.2575 2.0625 13.9375 C1.44375 12.968125 0.825 11.99875 0.1875 11 C-1.59428846 7.90914638 -1.59428846 7.90914638 -3.9375 6.9375 C-9.00064679 6.44015386 -13.44413247 6.1451009 -18 8.5625 C-23.01074554 14.70470422 -22.53720902 22.41302588 -21.9375 29.9375 C-21.09551727 33.79878018 -19.73367161 36.25190778 -16.6875 38.875 C-11.98821631 40.69063233 -8.38890013 40.46781928 -3.6875 38.75 C-0.69674686 36.7788218 0.51045705 35.12781051 2.0625 31.9375 C4.3725 32.5975 6.6825 33.2575 9.0625 33.9375 C8.77497474 37.29196138 8.13612044 38.84603218 6 41.5 C0.20704956 46.30691632 -4.83993651 48.67241076 -12.48046875 48.3203125 C-18.09201754 47.44601714 -21.77398417 45.10101583 -25.75 41.125 C-31.51278578 32.72779786 -31.94675555 24.86347939 -30.9375 14.9375 C-29.15590326 8.21563019 -25.60110752 3.47513119 -19.6015625 -0.06640625 C-13.46422876 -2.36115713 -6.18733446 -2.16762493 0 0 Z " fill="#70829A" transform="translate(1264.9375,282.0625)"/>
<path d="M0 0 C3.91797818 2.79855584 5.52375971 5.50098196 7 10 C7.8141079 17.92335247 7.97173839 25.44556289 3 32 C0.51081937 34.74668207 -0.65158429 34.96128714 -4.375 35.375 C-8.39276525 34.95936911 -10.64338215 34.23774523 -14 32 C-19.25011038 25.33094087 -19.64446789 19.27262418 -19 11 C-18.12604725 7.24269133 -16.45484604 4.55434361 -14 1.5625 C-9.40889807 -0.82869892 -5.06340634 -0.88324081 0 0 Z " fill="#09101D" transform="translate(827,288)"/>
<path d="M0 0 C3.67125 -0.061875 7.3425 -0.12375 11.125 -0.1875 C12.84420654 -0.22846802 12.84420654 -0.22846802 14.59814453 -0.27026367 C20.12921663 -0.31536184 24.28522295 -0.25289001 29 3 C31.78945399 6.22989409 32.89519026 8.2663318 33.5 12.5 C32.88544956 16.8018531 31.92696096 18.78034295 29 22 C22.54652945 25.08865426 17.07325812 25.37624642 10 25.1875 C6.7 25.125625 3.4 25.06375 0 25 C0 16.75 0 8.5 0 0 Z " fill="#0B101C" transform="translate(1257,142)"/>
<path d="M0 0 C2.64 0 5.28 0 8 0 C8 18.48 8 36.96 8 56 C17.57 56 27.14 56 37 56 C37 58.31 37 60.62 37 63 C24.79 63 12.58 63 0 63 C0 42.21 0 21.42 0 0 Z " fill="#75869F" transform="translate(402,265)"/>
<path d="M0 0 C12.51512055 7.0794815 20.40123393 19.47686101 24.36601448 33.06822777 C25.54931041 38.54020471 25.42439635 44.02017793 25.40405273 49.59692383 C25.4097679 50.93690048 25.41673656 52.27687227 25.42485046 53.61683655 C25.44267366 57.22864354 25.44163378 60.84020615 25.43590808 64.45204377 C25.43279946 67.48095277 25.43892736 70.50981596 25.44494683 73.5387184 C25.45895578 80.69259971 25.45746202 87.84636152 25.44604492 95.00024414 C25.43457586 102.34846165 25.44862708 109.69631365 25.4754414 117.04448301 C25.49769077 123.38201628 25.50421485 129.7194356 25.49836498 136.05700511 C25.49501513 139.82946735 25.49727723 143.60169561 25.51461601 147.37412453 C25.53023077 150.92597979 25.5259716 154.47729953 25.50731087 158.02913475 C25.50194447 159.9314193 25.51602912 161.83372875 25.53100586 163.73596191 C25.39651328 179.66276159 19.75414162 193.25598227 8.8125 204.8125 C-4.21189589 217.12711955 -19.14901595 221.62980812 -36.83569336 221.53344727 C-38.14012894 221.54206284 -39.44456451 221.55067841 -40.78852844 221.55955505 C-44.32178856 221.58179139 -47.85459537 221.57917088 -51.38789821 221.57023358 C-54.35718402 221.56507249 -57.3263884 221.57245722 -60.2956658 221.57970566 C-67.30973383 221.59662279 -74.32358387 221.59322205 -81.33764648 221.57641602 C-88.5314881 221.55950022 -95.72472261 221.57534001 -102.91849798 221.6076389 C-109.13556887 221.63447686 -115.35245245 221.64157287 -121.56957537 221.63312382 C-125.26495992 221.628236 -128.95997976 221.63018156 -132.65531731 221.65091133 C-167.02094424 221.82425049 -167.02094424 221.82425049 -180.9375 211.6875 C-181.91589844 210.99011719 -182.89429688 210.29273438 -183.90234375 209.57421875 C-184.59457031 209.05472656 -185.28679687 208.53523437 -186 208 C-185.01 207.67 -184.02 207.34 -183 207 C-181.4140625 208.07421875 -181.4140625 208.07421875 -179.625 209.6875 C-175.05054783 213.36416249 -170.26479911 214.71325214 -164.66015625 216.23828125 C-162 217 -162 217 -161 218 C-158.45309793 218.07622603 -155.93308193 218.09075425 -153.38671875 218.0625 C-152.62075882 218.05871338 -151.85479889 218.05492676 -151.06562805 218.05102539 C-147.7771665 218.03463128 -144.48882733 218.00660759 -141.20043945 217.97949219 C-138.80420507 217.96139122 -136.40799111 217.94930206 -134.01171875 217.9375 C-133.26991867 217.92920166 -132.52811859 217.92090332 -131.76383972 217.91235352 C-128.33007885 217.89608482 -125.30109528 218.06567465 -122 219 C-118.80462135 218.8575082 -115.64252296 218.61181852 -112.45898438 218.31640625 C-108.56260228 218.00830275 -104.8983912 218.05669938 -101.00952148 218.47973633 C-94.80314659 219.07337977 -88.64537379 219.16167783 -82.4140625 219.16796875 C-81.23645355 219.17129715 -80.0588446 219.17462555 -78.84555054 219.17805481 C-76.3630207 219.18309089 -73.88048416 219.18546417 -71.39794922 219.18530273 C-67.67012848 219.18747372 -63.94261171 219.20562286 -60.21484375 219.22460938 C-49.15069883 219.2513536 -38.15250541 219.14460079 -27.12890625 218.125 C-25.87583176 218.01075935 -25.87583176 218.01075935 -24.59744263 217.89421082 C-10.66686248 216.41850689 2.1026455 208.79351201 11 198 C16.38418234 190.61229446 16.38418234 190.61229446 19 182 C19.66 182 20.32 182 21 182 C21.06058594 181.43152344 21.12117187 180.86304688 21.18359375 180.27734375 C21.26738281 179.50519531 21.35117187 178.73304688 21.4375 177.9375 C21.55931641 176.80634766 21.55931641 176.80634766 21.68359375 175.65234375 C21.90490606 173.79714546 22.1849944 171.94844675 22.50871277 170.10835266 C23.28814985 164.63745087 23.16417369 159.12915799 23.17700195 153.61401367 C23.18685875 151.76388924 23.18685875 151.76388924 23.19691467 149.87638855 C23.21657734 145.80691273 23.22830203 141.73747616 23.23828125 137.66796875 C23.24233328 136.26062819 23.24645033 134.85328783 23.25063133 133.44594765 C23.26965092 126.83369154 23.28389069 120.22144639 23.2922433 113.60916823 C23.30201473 106.00178907 23.32834515 98.39470093 23.36874419 90.78742427 C23.39898305 84.88908408 23.41371935 78.99082701 23.41702431 73.09241086 C23.41936516 69.5776159 23.42819925 66.06313299 23.45348549 62.54842186 C23.48127052 58.62357811 23.47691135 54.69911292 23.4699707 50.77416992 C23.48278076 49.62422546 23.49559082 48.47428101 23.50878906 47.28948975 C23.46756513 40.87395098 22.64343424 35.9233665 19.9378233 30.08020496 C19 28 19 28 18.1875 24.5 C15.20590328 15.71213599 8.92803563 9.64336804 1.94140625 3.8125 C1.30074219 3.214375 0.66007813 2.61625 0 2 C0 1.34 0 0.68 0 0 Z " fill="#64B7E0" transform="translate(282,91)"/>
<path d="M0 0 C14.19 0 28.38 0 43 0 C43 4.95 43 9.9 43 15 C28.81 15 14.62 15 0 15 C0 10.05 0 5.1 0 0 Z " fill="#F0F3F8" transform="translate(1177,137)"/>
<path d="M0 0 C14.19 0 28.38 0 43 0 C43 4.95 43 9.9 43 15 C28.81 15 14.62 15 0 15 C0 10.05 0 5.1 0 0 Z " fill="#F0F4F9" transform="translate(705,137)"/>
<path d="M0 0 C3.34125 -0.0825 6.6825 -0.165 10.125 -0.25 C11.16672363 -0.28641602 12.20844727 -0.32283203 13.28173828 -0.36035156 C19.03094319 -0.42891296 22.51620346 0.01758646 27 4 C29.69346914 8.04020371 29.55014255 11.25710439 29 16 C27.37599816 19.63467079 26.33886956 20.77408696 23 23 C17.82870673 24.01636048 12.80374098 24.12434194 7.5625 24.0625 C5.066875 24.041875 2.57125 24.02125 0 24 C0 16.08 0 8.16 0 0 Z " fill="#0B111C" transform="translate(1257,104)"/>
<path d="M0 0 C1.12984818 -0.00426498 2.25969635 -0.00852997 3.42378235 -0.01292419 C5.27688271 -0.01224442 5.27688271 -0.01224442 7.16741943 -0.0115509 C9.12411812 -0.01658882 9.12411812 -0.01658882 11.12034607 -0.02172852 C14.69698326 -0.03055929 18.27359653 -0.03290629 21.85024357 -0.0335443 C24.08691977 -0.03425554 26.3235899 -0.03639129 28.56026459 -0.03904152 C36.36958705 -0.04829316 44.17889245 -0.05237679 51.98822021 -0.05158997 C59.25677997 -0.0509898 66.52526536 -0.06153005 73.79380631 -0.07733363 C80.04194685 -0.09043232 86.29006315 -0.09577286 92.53821731 -0.09513456 C96.26639275 -0.09488018 99.99450216 -0.09769798 103.72266388 -0.10831261 C107.88528986 -0.11984043 112.04775059 -0.11523253 116.21038818 -0.10920715 C117.4376915 -0.11482666 118.66499481 -0.12044617 119.92948914 -0.12623596 C128.1205231 -0.09612785 134.87736267 0.8216933 142.44769287 4.13371277 C139.04714844 5.26722758 137.76904786 4.68288463 134.46357346 3.65363693 C130.80456357 2.70992644 127.09479298 2.65728026 123.33294678 2.51701355 C122.02645392 2.46061549 122.02645392 2.46061549 120.69356728 2.40307808 C110.89185355 2.01455544 101.09155745 1.98872721 91.28363037 2.00090027 C89.31183867 2.00022322 87.34004704 1.99924989 85.36825562 1.9980011 C81.26565749 1.99654088 77.16308137 1.99862259 73.06048584 2.00334167 C67.8837115 2.00901596 62.70698877 2.00566148 57.53021622 1.99991512 C31.26981406 1.95019791 31.26981406 1.95019791 5.01800537 2.53605652 C4.01852875 2.56903839 3.01905212 2.60202026 1.98928833 2.63600159 C-5.3441853 2.95193484 -11.82729583 4.01427982 -18.55230713 7.13371277 C-19.38761963 7.51011902 -20.22293213 7.88652527 -21.08355713 8.27433777 C-32.77430843 14.41568181 -42.23109022 25.19953426 -47.55230713 37.13371277 C-47.88746338 37.75632996 -48.22261963 38.37894714 -48.56793213 39.02043152 C-50.7695231 43.31353391 -50.78193132 47.10666743 -50.56011963 51.80168152 C-50.55230713 54.13371277 -50.55230713 54.13371277 -51.0434618 55.97963047 C-51.60734565 58.36670598 -51.68109741 60.47883385 -51.6860199 62.93106079 C-51.69028488 63.89381424 -51.69454987 64.85656769 -51.69894409 65.84849548 C-51.69849091 66.89837646 -51.69803772 67.94825745 -51.6975708 69.029953 C-51.70092941 70.14106949 -51.70428802 71.25218597 -51.70774841 72.39697266 C-51.71726364 76.07876193 -51.71920226 79.7605057 -51.72027588 83.44230652 C-51.72348964 86.00619526 -51.7268538 88.57008381 -51.73036194 91.13397217 C-51.73635575 96.51662193 -51.73824457 101.89925369 -51.73760986 107.28190613 C-51.7370114 113.47450946 -51.74751734 119.66702503 -51.76335353 125.85960621 C-51.77809625 131.84072956 -51.78159533 137.82180599 -51.78100014 143.80294991 C-51.78217501 146.33488891 -51.78656893 148.86682866 -51.7943325 151.39875603 C-51.80421537 154.95688335 -51.80122105 158.51479029 -51.79522705 162.07292175 C-51.80084656 163.10458466 -51.80646606 164.13624756 -51.81225586 165.19917297 C-52.32969363 177.4399886 -52.32969363 177.4399886 -48.55230713 188.13371277 C-48.46980713 189.12371277 -48.38730713 190.11371277 -48.30230713 191.13371277 C-47.78023371 195.40763588 -45.81958693 198.58048454 -43.61090088 202.21574402 C-42.55230713 204.13371277 -42.55230713 204.13371277 -42.55230713 206.13371277 C-41.89230713 206.13371277 -41.23230713 206.13371277 -40.55230713 206.13371277 C-40.05730713 208.60871277 -40.05730713 208.60871277 -39.55230713 211.13371277 C-43.17212167 207.90347468 -45.42170369 204.24547361 -47.67730713 200.00871277 C-48.19744385 199.08832214 -48.19744385 199.08832214 -48.72808838 198.14933777 C-53.69699296 188.89689475 -53.85301126 179.14513676 -53.85870361 168.84391785 C-53.86702713 167.54981995 -53.87535065 166.25572205 -53.88392639 164.92240906 C-53.90570269 161.39937017 -53.9146474 157.87641796 -53.91975284 154.35331941 C-53.92341673 152.14368518 -53.92966713 149.93407298 -53.93675423 147.72444725 C-53.96119082 139.9913116 -53.9742879 132.25824246 -53.97784424 124.52507019 C-53.9814743 117.3563433 -54.01134636 110.18804584 -54.05324882 103.01945001 C-54.08812608 96.83221404 -54.10339567 90.64511922 -54.10409027 84.45778579 C-54.10487723 80.77683021 -54.11334361 77.09631311 -54.14208794 73.41546059 C-54.30479122 51.20844203 -53.28669222 33.49650407 -37.42730713 16.44621277 C-29.47654089 8.90178893 -20.25888706 3.51952524 -9.55230713 1.13371277 C-8.9630759 0.96172206 -8.37384468 0.78973135 -7.76675797 0.6125288 C-5.12687281 0.04172392 -2.7020231 0.00461371 0 0 Z " fill="#379DCF" transform="translate(129.55230712890625,80.86628723144531)"/>
<path d="M0 0 C4.2384375 -0.0928125 4.2384375 -0.0928125 8.5625 -0.1875 C9.43849854 -0.21481201 10.31449707 -0.24212402 11.21704102 -0.27026367 C17.32021562 -0.33436251 22.11737418 0.58231383 26.9375 4.625 C28.62152974 8.38930177 28.79194765 11.96106699 28 16 C25.81840855 18.75569447 24.12822506 20.43588747 21 22 C19.40552536 22.08400529 17.80759455 22.10727467 16.2109375 22.09765625 C15.36321777 22.09515869 14.51549805 22.09266113 13.64208984 22.09008789 C12.5639502 22.08098389 11.48581055 22.07187988 10.375 22.0625 C6.95125 22.041875 3.5275 22.02125 0 22 C0 14.74 0 7.48 0 0 Z " fill="#0A111E" transform="translate(1086,299)"/>
<path d="M0 0 C4.2384375 -0.0928125 4.2384375 -0.0928125 8.5625 -0.1875 C9.43849854 -0.21481201 10.31449707 -0.24212402 11.21704102 -0.27026367 C17.32021562 -0.33436251 22.11737418 0.58231383 26.9375 4.625 C28.62152974 8.38930177 28.79194765 11.96106699 28 16 C25.81840855 18.75569447 24.12822506 20.43588747 21 22 C19.40552536 22.08400529 17.80759455 22.10727467 16.2109375 22.09765625 C15.36321777 22.09515869 14.51549805 22.09266113 13.64208984 22.09008789 C12.5639502 22.08098389 11.48581055 22.07187988 10.375 22.0625 C6.95125 22.041875 3.5275 22.02125 0 22 C0 14.74 0 7.48 0 0 Z " fill="#0A111E" transform="translate(889,299)"/>
<path d="M0 0 C2.31 0 4.62 0 7 0 C7 2.31 7 4.62 7 7 C7.66 7 8.32 7 9 7 C9.2475 6.401875 9.495 5.80375 9.75 5.1875 C11.29537476 2.48309418 12.20647365 1.43257762 15 0 C18.01726886 -0.24492511 20.98018176 -0.17422028 24 0 C24 2.31 24 4.62 24 7 C23.40832031 7.02578125 22.81664062 7.0515625 22.20703125 7.078125 C16.95018101 7.45545193 13.82251643 8.05802993 10 12 C8.4725361 15.0549278 8.76008168 18.2763314 8.68359375 21.6328125 C8.66281265 22.38464813 8.64203156 23.13648376 8.62062073 23.91110229 C8.55517295 26.31564085 8.49626262 28.72028967 8.4375 31.125 C8.39431023 32.75391771 8.35069579 34.38282422 8.30664062 36.01171875 C8.19949649 40.00769915 8.09821567 44.00379059 8 48 C5.36 48 2.72 48 0 48 C0 32.16 0 16.32 0 0 Z " fill="#71829B" transform="translate(1462,281)"/>
<path d="M0 0 C4.3003125 -0.061875 4.3003125 -0.061875 8.6875 -0.125 C9.58170654 -0.14320801 10.47591309 -0.16141602 11.3972168 -0.18017578 C16.62252179 -0.21650738 20.80784938 -0.04096782 24.8125 3.6875 C26.54307779 7.05757254 26.51621935 9.2574097 26 13 C23.97632105 16.47359452 21.88983176 18.70338941 18 20 C16.59175107 20.08021999 15.18002769 20.10765977 13.76953125 20.09765625 C13.04612549 20.09515869 12.32271973 20.09266113 11.57739258 20.09008789 C10.66497803 20.08098389 9.75256348 20.07187988 8.8125 20.0625 C5.904375 20.041875 2.99625 20.02125 0 20 C0 13.4 0 6.8 0 0 Z " fill="#09111E" transform="translate(1086,272)"/>
<path d="M0 0 C4.3003125 -0.061875 4.3003125 -0.061875 8.6875 -0.125 C9.58170654 -0.14320801 10.47591309 -0.16141602 11.3972168 -0.18017578 C16.62252179 -0.21650738 20.80784938 -0.04096782 24.8125 3.6875 C26.54307779 7.05757254 26.51621935 9.2574097 26 13 C23.97632105 16.47359452 21.88983176 18.70338941 18 20 C16.59175107 20.08021999 15.18002769 20.10765977 13.76953125 20.09765625 C13.04612549 20.09515869 12.32271973 20.09266113 11.57739258 20.09008789 C10.66497803 20.08098389 9.75256348 20.07187988 8.8125 20.0625 C5.904375 20.041875 2.99625 20.02125 0 20 C0 13.4 0 6.8 0 0 Z " fill="#09111E" transform="translate(889,272)"/>
<path d="M0 0 C2.02790048 3.04185072 2.71661604 5.19156963 3.62109375 8.69921875 C3.91693359 9.82650391 4.21277344 10.95378906 4.51757812 12.11523438 C4.82115234 13.29408203 5.12472656 14.47292969 5.4375 15.6875 C7.7139236 24.74920849 7.7139236 24.74920849 10.72265625 33.58203125 C12 37 12 37 12 41 C4.41 41 -3.18 41 -11 41 C-8.94768548 32.4486895 -6.60904762 24.00830885 -4.15771484 15.5637207 C-2.66301322 10.39796619 -1.2699734 5.22572785 0 0 Z " fill="#111722" transform="translate(800,105)"/>
<path d="M0 0 C2.64 0 5.28 0 8 0 C8 15.84 8 31.68 8 48 C5.36 48 2.72 48 0 48 C0 32.16 0 16.32 0 0 Z " fill="#6F8098" transform="translate(937,281)"/>
<path d="M0 0 C0.86033092 11.81521135 0.86033092 11.81521135 -2.1875 15.625 C-7.31778855 19.95724367 -11.91429942 20.45858411 -18.4609375 20.30859375 C-21 20 -21 20 -23.6875 18.4375 C-25.54565027 14.98664949 -25.61012353 12.86411566 -25 9 C-20.94224489 3.56771121 -16.57958521 2.78355261 -10.25 1.6875 C-8.93708984 1.43516602 -8.93708984 1.43516602 -7.59765625 1.17773438 C-1.39652423 0 -1.39652423 0 0 0 Z " fill="#0D131E" transform="translate(1058,150)"/>
<path d="M0 0 C1.36908923 -0.00763098 2.7381742 -0.01606008 4.10725403 -0.02522278 C7.8121481 -0.04708729 11.51695967 -0.05595625 15.22191095 -0.06104922 C17.54257197 -0.06470356 19.86321173 -0.07094929 22.18386459 -0.07805061 C30.29722788 -0.10252105 38.41052749 -0.11559096 46.52392578 -0.11914062 C54.05786886 -0.12276991 61.59140308 -0.15262765 69.12522137 -0.19454521 C75.6155472 -0.2293762 82.10573842 -0.2446913 88.59615695 -0.24538666 C92.46264358 -0.24617539 96.32871358 -0.25472518 100.19510269 -0.28338432 C103.8380733 -0.30978482 107.48028844 -0.31165004 111.123312 -0.29572868 C113.0757617 -0.29308311 115.02819817 -0.31494914 116.98051453 -0.33792114 C129.18466912 -0.23813723 139.1492309 4.04031834 149.46826172 10.30639648 C149.46826172 10.96639648 149.46826172 11.62639648 149.46826172 12.30639648 C150.45826172 12.30639648 151.44826172 12.30639648 152.46826172 12.30639648 C152.79826172 13.62639648 153.12826172 14.94639648 153.46826172 16.30639648 C152.81341797 15.8590918 152.15857422 15.41178711 151.48388672 14.95092773 C141.18218367 8.12677698 131.2323043 3.204175 118.69563293 3.16595459 C117.56737091 3.16024445 116.43910889 3.1545343 115.2766571 3.14865112 C113.44141228 3.14697433 113.44141228 3.14697433 111.5690918 3.14526367 C110.26915283 3.14029877 108.96921387 3.13533386 107.62988281 3.13021851 C104.07382829 3.11714653 100.51779261 3.1106596 96.96171784 3.10620785 C94.73539306 3.10326832 92.50907331 3.09916185 90.28275108 3.09470367 C83.30367204 3.0810416 76.32460465 3.071369 69.34551316 3.06750178 C61.31426722 3.06302597 53.28319187 3.04549487 45.25199777 3.01650119 C39.02754907 2.99481735 32.80314813 2.98479392 26.5786621 2.98346066 C22.86882461 2.9824173 19.15914777 2.97661027 15.44935036 2.95864105 C11.30426466 2.93895278 7.15953177 2.94347591 3.0144043 2.94995117 C1.8010289 2.94073639 0.5876535 2.93152161 -0.66249084 2.92202759 C-11.085254 2.97283986 -19.91287021 5.49514687 -29.53173828 9.30639648 C-29.53173828 8.31639648 -29.53173828 7.32639648 -29.53173828 6.30639648 C-28.18045571 5.67518513 -26.82551781 5.05179814 -25.46923828 4.43139648 C-24.71513672 4.08334961 -23.96103516 3.73530273 -23.18408203 3.37670898 C-15.32349405 0.20468968 -8.44579866 0.00441029 0 0 Z " fill="#05304D" transform="translate(134.53173828125,78.693603515625)"/>
<path d="M0 0 C4.95 0 9.9 0 15 0 C15 20.13 15 40.26 15 61 C25.56 61 36.12 61 47 61 C47 65.29 47 69.58 47 74 C31.49 74 15.98 74 0 74 C0 49.58 0 25.16 0 0 Z M1 2 C1 25.43 1 48.86 1 73 C7.88875 73.020625 14.7775 73.04125 21.875 73.0625 C24.0494873 73.071604 26.22397461 73.08070801 28.46435547 73.09008789 C30.18196552 73.09300765 31.89957625 73.09555607 33.6171875 73.09765625 C34.51381104 73.10277222 35.41043457 73.10788818 36.33422852 73.11315918 C37.18670166 73.11328003 38.0391748 73.11340088 38.91748047 73.11352539 C40.03000687 73.11685631 40.03000687 73.11685631 41.16500854 73.12025452 C43.09774915 73.11269473 43.09774915 73.11269473 45 72 C45.020625 70.700625 45.04125 69.40125 45.0625 68.0625 C45.07410156 67.33160156 45.08570313 66.60070312 45.09765625 65.84765625 C45.20561184 63.98267859 45.20561184 63.98267859 44 63 C34.1 63 24.2 63 14 63 C13.67 42.87 13.34 22.74 13 2 C9.04 2 5.08 2 1 2 Z " fill="#082E4A" transform="translate(132,154)"/>
<path d="M0 0 C3.90286846 1.98691485 6.89345495 4.11952229 9 8 C9.33 10.31 9.66 12.62 10 15 C0.43 15 -9.14 15 -19 15 C-19 8.23357664 -19 8.23357664 -16.1875 5.25 C-15.66542969 4.67765625 -15.14335938 4.1053125 -14.60546875 3.515625 C-10.06836177 -0.76758062 -5.94496558 -0.75932582 0 0 Z " fill="#0D131E" transform="translate(1359,125)"/>
<path d="M0 0 C3.90286846 1.98691485 6.89345495 4.11952229 9 8 C9.33 10.31 9.66 12.62 10 15 C0.43 15 -9.14 15 -19 15 C-19 8.23357664 -19 8.23357664 -16.1875 5.25 C-15.66542969 4.67765625 -15.14335938 4.1053125 -14.60546875 3.515625 C-10.06836177 -0.76758062 -5.94496558 -0.75932582 0 0 Z " fill="#0D131E" transform="translate(975,125)"/>
<path d="M0 0 C0.66 0.33 1.32 0.66 2 1 C1.54109375 1.71542969 1.0821875 2.43085937 0.609375 3.16796875 C-0.31101562 4.66263672 -0.31101562 4.66263672 -1.25 6.1875 C-1.85328125 7.15042969 -2.4565625 8.11335938 -3.078125 9.10546875 C-8.29888158 18.84392815 -9.58585773 28.85805069 -9.4699707 39.74145508 C-9.4721611 41.04723511 -9.4743515 42.35301514 -9.47660828 43.69836426 C-9.48196755 47.23748523 -9.46278202 50.77607062 -9.43850732 54.31509614 C-9.41701015 58.03887799 -9.41779802 61.76266194 -9.41581726 65.48649597 C-9.40939783 71.73091696 -9.38825421 77.97514004 -9.35668945 84.21948242 C-9.31631535 92.21668928 -9.2989817 100.21376788 -9.28938007 108.21106434 C-9.28106002 115.11743812 -9.26384064 122.02378521 -9.24434257 128.93013549 C-9.24030388 130.4056 -9.23656277 131.88106536 -9.2331202 133.35653138 C-9.22178016 138.20625027 -9.20157226 143.05584719 -9.17700195 147.90551758 C-9.17431305 149.11868149 -9.17162415 150.3318454 -9.16885376 151.58177185 C-9.13144389 157.47989392 -8.89626513 163.1678574 -8 169 C-11 167 -11 167 -11.67842102 164.17880249 C-12.25803809 158.52249023 -12.14740059 152.81802402 -12.14526367 147.13916016 C-12.14862228 145.85536972 -12.1519809 144.57157928 -12.15544128 143.24888611 C-12.16423826 139.742605 -12.16661756 136.23634832 -12.16725707 132.73005724 C-12.16796994 130.53540197 -12.17010872 128.34075283 -12.17275429 126.14609909 C-12.18199299 118.47825479 -12.18609096 110.81042781 -12.18530273 103.14257812 C-12.18470212 96.01314423 -12.19525459 88.88378603 -12.2110464 81.75437129 C-12.22415192 75.61740631 -12.22948538 69.48046599 -12.22884732 63.34348714 C-12.22859325 59.6851881 -12.23139417 56.02695642 -12.24202538 52.36867142 C-12.25356832 48.28560515 -12.24894115 44.20270707 -12.24291992 40.11962891 C-12.24853943 38.91933548 -12.25415894 37.71904205 -12.25994873 36.4823761 C-12.20317521 21.30476282 -12.20317521 21.30476282 -8 15 C-7.52973132 13.57288407 -7.09468452 12.13387936 -6.6875 10.6875 C-5.25079774 6.15522277 -3.25483594 3.43077302 0 0 Z " fill="#002542" transform="translate(86,102)"/>
<path d="M0 0 C0.80050781 0.38091797 0.80050781 0.38091797 1.6171875 0.76953125 C2.36226563 1.11371094 3.10734375 1.45789063 3.875 1.8125 C4.59429687 2.14894531 5.31359375 2.48539062 6.0546875 2.83203125 C15.03587175 6.39353535 22.82523388 7.42927468 32.49267578 7.35644531 C33.8077713 7.35848969 35.12286682 7.36053406 36.47781372 7.36264038 C40.05626984 7.36773542 43.63443403 7.35431826 47.21284342 7.33711338 C50.97268826 7.32197547 54.73253091 7.32324903 58.49240112 7.32244873 C64.80178754 7.31876706 71.11106445 7.30385455 77.42041016 7.28125 C85.50177952 7.25235448 93.58306097 7.24202179 101.66447639 7.2375679 C108.63743576 7.2335782 115.61037629 7.22108126 122.58332205 7.20722103 C124.81326981 7.2031379 127.04321693 7.20020432 129.27316666 7.19742584 C133.43751616 7.19158955 137.60178953 7.17689647 141.76611328 7.16113281 C142.99334106 7.16001495 144.22056885 7.15889709 145.48498535 7.15774536 C151.41684898 7.12805593 157.13501972 6.90561988 163 6 C163 6.66 163 7.32 163 8 C155.24226681 9.9248229 147.86010427 10.28603529 139.89038086 10.25878906 C137.97866844 10.26404602 137.97866844 10.26404602 136.02833557 10.26940918 C132.56145243 10.27845655 129.09468952 10.2750211 125.62780452 10.26865101 C121.98319495 10.26355216 118.338595 10.26829308 114.69398499 10.27142334 C108.57714 10.27505127 102.46034347 10.27029431 96.34350586 10.26074219 C89.29068653 10.24985501 82.23798284 10.25338984 75.1851663 10.264395 C69.10758192 10.27349559 63.03003218 10.27473978 56.95244318 10.26951766 C53.33220277 10.26641378 49.71201656 10.26594488 46.09177971 10.27259064 C42.05452594 10.27948571 38.01746896 10.26990624 33.98022461 10.25878906 C32.79399506 10.26283752 31.6077655 10.26688599 30.3855896 10.27105713 C22.19093952 10.22936904 14.65462609 9.53037414 7.125 6 C6.40570313 5.67 5.68640625 5.34 4.9453125 5 C3 4 3 4 0 2 C0 1.34 0 0.68 0 0 Z " fill="#082E48" transform="translate(104,304)"/>
<path d="M0 0 C0.66 0 1.32 0 2 0 C5.74382847 10.21026232 5.14722245 21.33851553 5.06933594 32.08642578 C5.06454727 33.32220871 5.05975861 34.55799164 5.05482483 35.83122253 C5.0403124 39.17564341 5.02092209 42.51995108 4.99825954 45.86432123 C4.98429406 47.95744361 4.97169189 50.05056999 4.9595108 52.14370346 C4.91668981 59.45457604 4.86745335 66.76537722 4.81298828 74.07617188 C4.76248512 80.8820065 4.72740961 87.68780929 4.69905448 94.49376881 C4.67387182 100.3556879 4.6373031 106.21746592 4.59196877 112.07926357 C4.56518378 115.57294634 4.543176 119.06650217 4.53295135 122.56027603 C4.52119475 126.4428818 4.4858408 130.32507363 4.44824219 134.20751953 C4.44810623 135.36385391 4.44797028 136.52018829 4.4478302 137.71156311 C4.43384689 138.76549759 4.41986359 139.81943207 4.40545654 140.90530396 C4.39954876 141.82219561 4.39364098 142.73908726 4.38755417 143.6837635 C3.93117122 146.41135858 3.12455051 147.29768805 1 149 C1.00138269 147.91193385 1.00138269 147.91193385 1.00279331 146.80188656 C1.02489048 129.14098759 1.04143202 111.48009214 1.05181217 93.8191824 C1.05696552 85.27845704 1.06398993 76.73774091 1.07543945 68.19702148 C1.08541563 60.75178062 1.09186042 53.30654646 1.09408849 45.8612991 C1.09539061 41.92016812 1.09844491 37.97905628 1.10573006 34.03793144 C1.11253656 30.32553344 1.11460755 26.61316239 1.11310768 22.90075874 C1.11351232 20.89465109 1.11888334 18.88854634 1.12442017 16.88244629 C1.11788034 11.15248208 1.05473975 5.63985211 0 0 Z " fill="#0F334C" transform="translate(305,120)"/>
<path d="M0 0 C0.37695208 4.71190102 0.46314703 8.07370593 -1.6875 12.375 C-4.60716124 15.68921006 -6.67321716 17.65670417 -11.14453125 18.31640625 C-15.08966202 18.51922392 -17.50146118 18.25435654 -21.0625 16.4375 C-23 14 -23 14 -23.625 10.5 C-23 7 -23 7 -20.91015625 4.85546875 C-17.44245244 2.64451666 -14.88381628 2.24580131 -10.8125 1.8125 C-7.20407753 1.40820555 -3.46383298 0 0 0 Z " fill="#0C1422" transform="translate(1441,305)"/>
<path d="M0 0 C0.37695208 4.71190102 0.46314703 8.07370593 -1.6875 12.375 C-4.60716124 15.68921006 -6.67321716 17.65670417 -11.14453125 18.31640625 C-15.08966202 18.51922392 -17.50146118 18.25435654 -21.0625 16.4375 C-23 14 -23 14 -23.625 10.5 C-23 7 -23 7 -20.91015625 4.85546875 C-17.44245244 2.64451666 -14.88381628 2.24580131 -10.8125 1.8125 C-7.20407753 1.40820555 -3.46383298 0 0 0 Z " fill="#0C1422" transform="translate(986,305)"/>
<path d="M0 0 C0.37695208 4.71190102 0.46314703 8.07370593 -1.6875 12.375 C-4.60716124 15.68921006 -6.67321716 17.65670417 -11.14453125 18.31640625 C-15.08966202 18.51922392 -17.50146118 18.25435654 -21.0625 16.4375 C-23 14 -23 14 -23.625 10.5 C-23 7 -23 7 -20.91015625 4.85546875 C-17.44245244 2.64451666 -14.88381628 2.24580131 -10.8125 1.8125 C-7.20407753 1.40820555 -3.46383298 0 0 0 Z " fill="#0C1422" transform="translate(630,305)"/>
<path d="M0 0 C2 1 2 1 2.85375977 3.31323242 C3.13018311 4.31717041 3.40660645 5.3211084 3.69140625 6.35546875 C3.99626953 7.45310547 4.30113281 8.55074219 4.61523438 9.68164062 C4.92783203 10.83857422 5.24042969 11.99550781 5.5625 13.1875 C5.87896484 14.32509766 6.19542969 15.46269531 6.52148438 16.63476562 C7.93551082 21.77749873 9.12056356 26.72338138 10 32 C4.06 32 -1.88 32 -8 32 C-6.68223733 25.84635481 -5.16536337 19.80008541 -3.4375 13.75 C-1.48513893 6.93199975 -1.48513893 6.93199975 0 0 Z " fill="#40B5EC" transform="translate(219,167)"/>
<path d="M0 0 C0.24772058 4.21124988 0.41382076 7.8802497 -1.0625 11.875 C-4.58558943 15.73903357 -8.53812398 16.82356669 -13.625 17.4375 C-17.71783511 16.9069473 -19.33257147 16.15241553 -22 13 C-22.625 9.5 -22.625 9.5 -22 6 C-18.25204858 2.16813922 -15.12049808 1.35139468 -9.875 0.75 C-8.65554688 0.60046875 -7.43609375 0.4509375 -6.1796875 0.296875 C-3 0 -3 0 0 0 Z " fill="#09111E" transform="translate(781,306)"/>
<path d="M0 0 C3.34657952 1.84403361 4.55537469 3.15309464 6.3125 6.5 C7 9 7 9 7 13 C-1.58 13 -10.16 13 -19 13 C-17.90079845 6.40479072 -17.28337 5.49231488 -13 1 C-9.05749412 -0.97125294 -4.29780285 -0.44717024 0 0 Z " fill="#09111F" transform="translate(727,288)"/>
<path d="M0 0 C3.51900535 1.72374042 5.55378185 4.14812898 7.375 7.625 C8 10 8 10 8 13 C-0.58 13 -9.16 13 -18 13 C-16.86166008 5.03162055 -16.86166008 5.03162055 -12 1 C-8.26836358 -0.86581821 -4.06325499 -0.55464677 0 0 Z " fill="#09101E" transform="translate(1158,288)"/>
<path d="M0 0 C0.33 0 0.66 0 1 0 C1.00331015 0.60131083 1.00662029 1.20262167 1.01003075 1.82215405 C1.09152663 16.50600164 1.18370417 31.18975592 1.28752708 45.87346172 C1.33748356 52.97462027 1.3839272 60.07576824 1.421875 67.17700195 C1.45498939 73.37203799 1.49492519 79.56698765 1.54279006 85.7619279 C1.56786358 89.03701689 1.5886811 92.31203999 1.60334396 95.58719444 C1.62036018 99.25836751 1.64943116 102.9292702 1.68115234 106.6003418 C1.68331253 107.66634109 1.68547272 108.73234039 1.68769836 109.8306427 C1.20197217 122.19246978 1.20197217 122.19246978 5 133 C5.0825 133.99 5.165 134.98 5.25 136 C5.77207342 140.27392311 7.7327202 143.44677177 9.94140625 147.08203125 C11 149 11 149 11 151 C11.66 151 12.32 151 13 151 C13.495 153.475 13.495 153.475 14 156 C10.38018546 152.76976191 8.13060344 149.11176084 5.875 144.875 C5.35486328 143.95460938 5.35486328 143.95460938 4.82421875 143.015625 C-0.07148317 133.89949039 -0.29044636 124.35955849 -0.22705078 114.20654297 C-0.22734283 112.96637924 -0.22763489 111.72621552 -0.22793579 110.44847107 C-0.22678888 107.07923747 -0.21682337 103.71025509 -0.20278788 100.34106588 C-0.1902058 96.80836841 -0.18910417 93.27566687 -0.18673706 89.74295044 C-0.18054411 83.06734187 -0.16416317 76.39179954 -0.14403808 69.71622002 C-0.1216107 62.11033808 -0.11066852 54.50445281 -0.10064721 46.89854598 C-0.07979476 31.26565909 -0.04466172 15.63283812 0 0 Z " fill="#43A0CF" transform="translate(76,136)"/>
<path d="M0 0 C12.26015457 6.93525381 20.47084418 19.32438948 24.37286377 32.7101593 C25.79091957 40.1490178 25.35970806 47.80786083 25.29296875 55.3515625 C25.28736474 57.2205674 25.28309845 59.08957674 25.28010559 60.95858765 C25.26872014 65.8478031 25.23930802 70.73674585 25.20599365 75.62585449 C25.17515608 80.62683423 25.16157115 85.62785858 25.14648438 90.62890625 C25.1144316 100.41938982 25.06331253 110.20967212 25 120 C24.67 120 24.34 120 24 120 C23.99635437 118.99490387 23.99270874 117.98980774 23.98895264 116.95425415 C23.95190185 107.45054906 23.89401956 97.94716496 23.81609726 88.44370461 C23.7767028 83.55864811 23.74447506 78.67376971 23.72900391 73.78857422 C23.71378426 69.06804554 23.67924515 64.34800674 23.63169098 59.62769699 C23.61693172 57.83296356 23.60896214 56.03816016 23.60811615 54.24336624 C23.59901317 44.60879622 23.39215215 36.77726421 19 28 C18.731875 26.845 18.46375 25.69 18.1875 24.5 C15.20590328 15.71213599 8.92803563 9.64336804 1.94140625 3.8125 C1.30074219 3.214375 0.66007812 2.61625 0 2 C0 1.34 0 0.68 0 0 Z " fill="#61B3DE" transform="translate(282,91)"/>
<path d="M0 0 C3.17214274 0.62078492 4.25535269 1.20102233 6.9375 3.3125 C11.27029695 6.58342986 16.13272498 7.76581423 21.3046875 9.203125 C24 10 24 10 25 11 C27.59359322 11.08851529 30.16039691 11.11525945 32.75390625 11.09765625 C33.52935287 11.0962413 34.3047995 11.09482635 35.10374451 11.09336853 C37.59003494 11.08775345 40.0762366 11.07519846 42.5625 11.0625 C44.24413933 11.05748694 45.92578006 11.0529237 47.60742188 11.04882812 C51.73831566 11.03777913 55.86914276 11.02050445 60 11 C60.495 11.99 60.495 11.99 61 13 C56.43374133 13.27105998 51.86757357 13.50287968 47.29760742 13.7019043 C45.75054699 13.77440025 44.20390924 13.85673387 42.65795898 13.94995117 C28.83063604 14.77231065 16.65121279 13.07988409 5.0625 4.75 C4.08410156 4.06421875 3.10570313 3.3784375 2.09765625 2.671875 C1.40542969 2.12015625 0.71320313 1.5684375 0 1 C0 0.67 0 0.34 0 0 Z " fill="#50ADDA" transform="translate(96,298)"/>
<path d="M0 0 C0.33 0 0.66 0 1 0 C0.62770036 6.38044563 -0.32955352 11.21403263 -3 17 C-3.39764263 18.98821313 -3.75455166 20.98732362 -4 23 C-0.04 22.67 3.92 22.34 8 22 C8.33 20.68 8.66 19.36 9 18 C10 21 10 21 9 25 C3.39 25 -2.22 25 -8 25 C-5.54258108 16.59304054 -2.79908648 8.29768718 0 0 Z " fill="#021C34" transform="translate(193,203)"/>
<path d="M0 0 C4.44839122 4.44839122 7.32163349 12.89025178 7.375 19.1875 C7 22 7 22 6 24 C-6.09929701 24.38752197 -6.09929701 24.38752197 -11 22 C-13.29013653 18.5647952 -13.17842973 17.014669 -13 13 C-11 16 -11 16 -10 21 C-4.72 21 0.56 21 6 21 C5.566875 19.73542969 5.13375 18.47085938 4.6875 17.16796875 C4.12476246 15.507893 3.56227547 13.84773231 3 12.1875 C2.71382812 11.35412109 2.42765625 10.52074219 2.1328125 9.66210938 C1.86210937 8.85966797 1.59140625 8.05722656 1.3125 7.23046875 C1.06113281 6.49207764 0.80976563 5.75368652 0.55078125 4.99291992 C0 3 0 3 0 0 Z " fill="#59ADD7" transform="translate(249,207)"/>
<path d="M0 0 C3.625 0.375 3.625 0.375 7 1 C8.33157895 6.44736842 8.33157895 6.44736842 6.875 8.875 C4.40522151 10.3568671 2.83386167 10.3633156 0 10 C-2 8 -2 8 -2.25 5 C-2 2 -2 2 0 0 Z " fill="#708098" transform="translate(938,263)"/>
<path d="M0 0 C12.74752195 7.21094499 20.72842689 20.06424946 24.72265625 33.9140625 C25.02958199 36.22248989 24.71206317 37.79907746 24 40 C19.2077961 28.86086957 19.2077961 28.86086957 18.125 24.375 C15.21437787 15.64313361 8.8596579 9.58630167 1.94140625 3.8125 C1.30074219 3.214375 0.66007812 2.61625 0 2 C0 1.34 0 0.68 0 0 Z " fill="#4CA2CD" transform="translate(282,91)"/>
<path d="M0 0 C0.66 0 1.32 0 2 0 C1.54363464 1.396478 1.08480512 2.7921508 0.625 4.1875 C0.36976563 4.96480469 0.11453125 5.74210938 -0.1484375 6.54296875 C-1.01991102 9.05744968 -2.0116485 11.52912126 -3 14 C2.61 14 8.22 14 14 14 C14.33 11.69 14.66 9.38 15 7 C15.99 8.485 15.99 8.485 17 10 C16.25 12.625 16.25 12.625 15 15 C11.69005287 16.65497356 8.00877 16.10084335 4.375 16.0625 C3.57320312 16.05798828 2.77140625 16.05347656 1.9453125 16.04882812 C-0.03649006 16.03703168 -2.01825433 16.01909605 -4 16 C-4.2037167 11.65828779 -3.72275197 8.60886393 -2 4.625 C-1.62875 3.75101563 -1.2575 2.87703125 -0.875 1.9765625 C-0.58625 1.32429687 -0.2975 0.67203125 0 0 Z " fill="#4CA7D4" transform="translate(188,214)"/>
<path d="M0 0 C11.84690434 -0.81081475 19.97358835 3.09071391 30 9 C30 9.66 30 10.32 30 11 C30.99 11 31.98 11 33 11 C33.495 12.98 33.495 12.98 34 15 C33.34515625 14.55269531 32.6903125 14.10539062 32.015625 13.64453125 C21.87939848 6.92999701 12.09864424 2.59568733 0 1 C0 0.67 0 0.34 0 0 Z " fill="#042742" transform="translate(254,80)"/>
<path d="M0 0 C1.39972508 0.01508394 2.799466 0.02876575 4.19921875 0.04101562 C7.59155844 0.07610879 10.98306775 0.12527735 14.375 0.1875 C14.375 0.5175 14.375 0.8475 14.375 1.1875 C13.29569214 1.20151855 13.29569214 1.20151855 12.19458008 1.21582031 C-6.61624117 1.37655144 -6.61624117 1.37655144 -24.625 6.1875 C-25.95206877 6.5449596 -27.28365346 6.88803659 -28.625 7.1875 C-25.8532732 2.94893555 -23.50272566 2.00991586 -18.72753906 0.72802734 C-12.52660956 -0.35230457 -6.26873288 -0.11851707 0 0 Z " fill="#279CD5" transform="translate(135.625,81.8125)"/>
<path d="M0 0 C1.17724431 3.95755597 0.57027541 6.1255918 -0.75 10.0625 C-2.15143195 14.3339878 -3.42384931 18.57311107 -4.5 22.9375 C-5.6648367 27.33942431 -7.1979756 30.42500335 -10 34 C-11 32 -11 32 -10.10375977 28.83544922 C-9.64071062 27.48917651 -9.16933343 26.14575064 -8.69140625 24.8046875 C-8.44583481 24.09724396 -8.20026337 23.38980042 -7.94725037 22.66091919 C-7.15936446 20.39642095 -6.36107404 18.13574849 -5.5625 15.875 C-5.02730681 14.34268804 -4.49279274 12.81013869 -3.95898438 11.27734375 C-2.64719465 7.51542687 -1.3260607 3.75690894 0 0 Z " fill="#05253E" transform="translate(205,168)"/>
<path d="M0 0 C2 1 2 1 2.88671875 3.36328125 C3.15097656 4.33652344 3.41523438 5.30976563 3.6875 6.3125 C3.95949219 7.27800781 4.23148438 8.24351562 4.51171875 9.23828125 C4.99152353 11.95205711 4.90721887 13.43665005 4 16 C3.34 15.67 2.68 15.34 2 15 C2 13.02 2 11.04 2 9 C1.34 9 0.68 9 0 9 C-0.19335938 9.84304687 -0.38671875 10.68609375 -0.5859375 11.5546875 C-0.97652344 13.19824219 -0.97652344 13.19824219 -1.375 14.875 C-1.63023437 15.96554688 -1.88546875 17.05609375 -2.1484375 18.1796875 C-3 21 -3 21 -5 23 C-4.23678133 17.97079064 -3.1227089 13.06686041 -1.9375 8.125 C-1.75123047 7.34125 -1.56496094 6.5575 -1.37304688 5.75 C-0.91715285 3.83290719 -0.45882473 1.9163935 0 0 Z " fill="#4D9DC6" transform="translate(219,167)"/>
<path d="M0 0 C2 3 2 3 3 9 C-2.28 9 -7.56 9 -13 9 C-15 4 -15 4 -15 1 C-14.34 1 -13.68 1 -13 1 C-12.67 2.98 -12.34 4.96 -12 7 C-6.555 6.505 -6.555 6.505 -1 6 C-0.67 4.02 -0.34 2.04 0 0 Z " fill="#011A32" transform="translate(252,219)"/>
<path d="M0 0 C1.86610926 2.79916389 2.68785383 4.81938269 3.625 8 C3.88539063 8.86625 4.14578125 9.7325 4.4140625 10.625 C5 13 5 13 5 16 C-0.94 16 -6.88 16 -13 16 C-12.34 13.03 -11.68 10.06 -11 7 C-10.67 7 -10.34 7 -10 7 C-10 9.31 -10 11.62 -10 14 C-5.71 14.33 -1.42 14.66 3 15 C2.505 13.2675 2.01 11.535 1.5 9.75 C0.49375016 6.22812554 0 3.70769715 0 0 Z " fill="#4F9FC7" transform="translate(224,183)"/>
<path d="M0 0 C0.83265381 0.00523682 1.66530762 0.01047363 2.52319336 0.01586914 C3.42231445 0.0190918 4.32143555 0.02231445 5.24780273 0.02563477 C6.66609375 0.03820312 6.66609375 0.03820312 8.11303711 0.05102539 C9.06243164 0.05553711 10.01182617 0.06004883 10.98999023 0.06469727 C13.34353242 0.07652411 15.69704243 0.09446018 18.05053711 0.11352539 C19.04053711 3.08352539 20.03053711 6.05352539 21.05053711 9.11352539 C18.05053711 6.11352539 18.05053711 6.11352539 17.05053711 2.11352539 C11.44053711 2.11352539 5.83053711 2.11352539 0.05053711 2.11352539 C-0.59915039 4.31008789 -0.59915039 4.31008789 -1.26196289 6.55102539 C-2.00024414 9.04711914 -2.00024414 9.04711914 -2.94946289 11.11352539 C-3.93946289 11.44352539 -4.92946289 11.77352539 -5.94946289 12.11352539 C-5.47440611 10.29994385 -4.99430247 8.4876836 -4.51196289 6.67602539 C-4.24512695 5.66668945 -3.97829102 4.65735352 -3.70336914 3.61743164 C-2.6608441 0.1549521 -2.6608441 0.1549521 0 0 Z " fill="#04203A" transform="translate(211.949462890625,154.886474609375)"/>
<path d="M0 0 C3.30810418 2.61312431 3.81612539 5.34546872 4.6875 9.375 C4.93886719 10.49648437 5.19023437 11.61796875 5.44921875 12.7734375 C6 16 6 16 6 21 C-0.27 21 -6.54 21 -13 21 C-13 20.67 -13 20.34 -13 20 C-7.06 20 -1.12 20 5 20 C3.36087568 14.91247831 3.36087568 14.91247831 1.70898438 9.82910156 C1.40444336 8.86955566 1.40444336 8.86955566 1.09375 7.890625 C0.88427734 7.24125977 0.67480469 6.59189453 0.45898438 5.92285156 C0 4 0 4 0 0 Z " fill="#092C45" transform="translate(224,179)"/>
<path d="M0 0 C8.91 0 17.82 0 27 0 C27 0.66 27 1.32 27 2 C14.13 1.505 14.13 1.505 1 1 C0.67 2.98 0.34 4.96 0 7 C-0.99 7.66 -1.98 8.32 -3 9 C-2.01 6.03 -1.02 3.06 0 0 Z " fill="#5BA3CA" transform="translate(207,211)"/>
<path d="M0 0 C1.155 0.5775 2.31 1.155 3.5 1.75 C10.35829055 4.83237777 17.7022947 6.31660295 25 8 C25 8.33 25 8.66 25 9 C14.91790265 9.4922543 8.57444844 7.07467357 0 2 C0 1.34 0 0.68 0 0 Z " fill="#032039" transform="translate(104,304)"/>
<path d="M0 0 C0 0.66 0 1.32 0 2 C-8.95604433 4.46456257 -17.80177495 4.1920743 -27 4 C-27 3.67 -27 3.34 -27 3 C-26.44538086 2.94465088 -25.89076172 2.88930176 -25.31933594 2.83227539 C-22.7959083 2.57871893 -20.27296117 2.32065495 -17.75 2.0625 C-16.44095703 1.93198242 -16.44095703 1.93198242 -15.10546875 1.79882812 C-14.26113281 1.71181641 -13.41679687 1.62480469 -12.546875 1.53515625 C-11.77182617 1.456604 -10.99677734 1.37805176 -10.19824219 1.29711914 C-8.01027745 1.0468345 -8.01027745 1.0468345 -5.96582031 0.46655273 C-4 0 -4 0 0 0 Z " fill="#041D33" transform="translate(267,310)"/>
<path d="M0 0 C0.86058562 2.8284982 1.09285432 3.7400079 0.0625 6.625 C-1.15565415 10.49443082 -1.07512359 13.61783307 -0.875 17.6328125 C-1.01270977 20.24069124 -1.68455926 21.76991687 -3 24 C-5.81602183 15.55193452 -2.7619269 8.0885002 0 0 Z " fill="#2D8EBF" transform="translate(80,115)"/>
<path d="M0 0 C-2.9180769 1.56349617 -5.75543117 2.59784181 -8.9375 3.5 C-12.37918181 4.50149382 -15.70563866 5.57244342 -19 7 C-19 6.01 -19 5.02 -19 4 C-12.511583 0.48935892 -7.35174806 -0.55253221 0 0 Z " fill="#022440" transform="translate(124,81)"/>
<path d="M0 0 C4.91437459 1.63812486 6.89554454 5.59891541 9.25 10 C10.76507092 13.12483377 11.44052002 15.47583985 11 19 C9.17574689 16.26362034 7.62011544 13.51828058 6.0625 10.625 C4.12475611 7.02704076 2.12594283 3.4903539 0 0 Z " fill="#03233D" transform="translate(294,101)"/>
<path d="M0 0 C3.05364048 0.59210022 4.89929552 1.49656943 7.3125 3.4375 C10.77644696 6.03171136 13.79634743 7.05632289 18 8 C16.453125 9.26953125 16.453125 9.26953125 14 10 C11.36065153 8.6713687 9.15184427 7.35951557 6.75 5.6875 C5.77546875 5.04264648 5.77546875 5.04264648 4.78125 4.38476562 C3.15992775 3.29650415 1.57619853 2.15264785 0 1 C0 0.67 0 0.34 0 0 Z " fill="#4AA0CB" transform="translate(96,298)"/>
<path d="M0 0 C-0.59167969 0.38671875 -1.18335937 0.7734375 -1.79296875 1.171875 C-6.01413301 3.95384949 -10.12058072 6.74629351 -14 10 C-14 8.68 -14 7.36 -14 6 C-13.01 6 -12.02 6 -11 6 C-10.67 5.01 -10.34 4.02 -10 3 C-9.01 3 -8.02 3 -7 3 C-6.67 2.01 -6.34 1.02 -6 0 C-3 -1 -3 -1 0 0 Z " fill="#012441" transform="translate(105,89)"/>
<path d="M0 0 C0.66 0.99 1.32 1.98 2 3 C1.34 4.65 0.68 6.3 0 8 C-5.61 8 -11.22 8 -17 8 C-17 7.67 -17 7.34 -17 7 C-11.72 7 -6.44 7 -1 7 C-0.67 4.69 -0.34 2.38 0 0 Z " fill="#54A5CD" transform="translate(203,221)"/>
<path d="M0 0 C-3.3 2.31 -6.6 4.62 -10 7 C-10.33 6.01 -10.66 5.02 -11 4 C-9.73760288 3.13341385 -8.46472499 2.28207941 -7.1875 1.4375 C-6.47980469 0.96183594 -5.77210938 0.48617188 -5.04296875 -0.00390625 C-3 -1 -3 -1 0 0 Z " fill="#65B0D5" transform="translate(287,299)"/>
<path d="M0 0 C2.9719385 1.12451727 5.33440687 2.22293791 8 4 C8 4.66 8 5.32 8 6 C8.99 6 9.98 6 11 6 C11.33 7.32 11.66 8.64 12 10 C10.18116422 8.90630138 8.37009022 7.79968608 6.5625 6.6875 C5.55316406 6.07261719 4.54382813 5.45773438 3.50390625 4.82421875 C1 3 1 3 0 0 Z " fill="#022039" transform="translate(276,85)"/>
<path d="M0 0 C0.66 0 1.32 0 2 0 C1.01 4.62 0.02 9.24 -1 14 C-1.33 14 -1.66 14 -2 14 C-2.05437607 12.41705218 -2.09296271 10.83355744 -2.125 9.25 C-2.14820313 8.36828125 -2.17140625 7.4865625 -2.1953125 6.578125 C-1.99139502 3.8864142 -1.36551721 2.30095026 0 0 Z " fill="#082841" transform="translate(217,170)"/>
<path d="M0 0 C1.48285242 0.95262034 2.96118201 1.91228405 4.4375 2.875 C5.67306641 3.67550781 5.67306641 3.67550781 6.93359375 4.4921875 C9 6 9 6 10 8 C5.61999924 7.49942848 3.15830185 6.06806466 0 3 C0 2.01 0 1.02 0 0 Z " fill="#03223B" transform="translate(93,296)"/>
<path d="M0 0 C0.33 0.99 0.66 1.98 1 3 C-0.65 4.65 -2.3 6.3 -4 8 C-4.99 7.67 -5.98 7.34 -7 7 C-4.69 4.69 -2.38 2.38 0 0 Z " fill="#6CBFE7" transform="translate(292,290)"/>
<path d="M0 0 C1.3609623 2.7219246 0.70366248 4.1831957 0.0625 7.125 C-0.13214844 8.03507813 -0.32679688 8.94515625 -0.52734375 9.8828125 C-0.68332031 10.58148438 -0.83929688 11.28015625 -1 12 C-1.66 12 -2.32 12 -3 12 C-3.43200679 7.24792529 -1.98489083 4.21789302 0 0 Z " fill="#46ADDF" transform="translate(200,176)"/>
<path d="M0 0 C0.96697501 3.86790003 0.979595 5.08162002 0.0625 8.75 C-0.22947266 9.94882812 -0.22947266 9.94882812 -0.52734375 11.171875 C-0.68332031 11.77515625 -0.83929688 12.3784375 -1 13 C-1.66 13 -2.32 13 -3 13 C-3 11.68 -3 10.36 -3 9 C-2.34 9 -1.68 9 -1 9 C-0.67 6.03 -0.34 3.06 0 0 Z " fill="#68BEE8" transform="translate(304,264)"/>
<path d="M0 0 C0.33 0 0.66 0 1 0 C0.67 2.97 0.34 5.94 0 9 C-0.99 9.33 -1.98 9.66 -3 10 C-2.01 6.7 -1.02 3.4 0 0 Z " fill="#07253B" transform="translate(305,270)"/>
</svg>
